<svg width="212" height="103" viewBox="0 0 212 103" fill="none" xmlns="http://www.w3.org/2000/svg">
<path d="M205.665 21.4674C203.041 18.5944 192.204 22.7867 192.204 22.7867C192.204 22.7867 188.488 24.2591 185.478 24.1921C183.78 24.1587 183.159 23.3747 184.142 22.5907C184.514 22.2943 185.378 21.9836 186.055 21.7685C186.57 21.606 187.057 21.0084 187.119 20.2245C187.367 17.1459 187.324 9.55475 180.76 9.67426C174.583 9.78899 173.529 14.4164 176.262 19.8229C177.984 23.2217 174.859 23.4799 172.455 23.1835C164.341 22.1701 152.111 17.2702 147.569 4C166.659 9.11496 197.832 2.78101 207.502 9.54519C207.607 9.6169 212.539 16.7635 205.665 21.4674Z" fill="white"/>
<path d="M191.573 51.1624C184.704 55.981 177.058 59.5424 165.48 60.202C165.557 59.8101 168.285 45.6794 184.156 36.0709C196.348 28.6901 211.517 22.729 207.52 9.54004C210.158 11.4283 211.775 14.9275 211.966 17.6379C212.61 26.8735 203.584 42.7347 191.573 51.1624Z" fill="#A7A9AC"/>
<path d="M89.8362 38.5575L90.1462 38.7535L89.1397 39.8482C89.0539 39.939 88.1809 41.1293 86.5925 41.1293C86.0391 41.1293 85.4476 41.0337 84.8275 40.8521C83.6445 40.5031 83.4966 40.3023 81.5504 40.3023C76.723 40.3023 76.3748 45.9814 76.37 46.0196L73.1359 61.3071C72.4299 65.2031 69.978 67.9327 66.8965 67.9327C65.2747 67.9327 63.3237 67.9375 62.2456 67.9518C63.4715 62.0768 66.7439 46.3542 66.9299 45.3791C67.5929 42.4391 70.455 36.5928 82.099 36.5928C85.5478 36.588 87.3366 37.3051 89.8362 38.5575Z" fill="white"/>
<path d="M120.642 36.5879C124.301 36.5879 127.588 37.3288 130.416 38.7916C130.035 39.5278 128.928 41.3348 126.815 41.2583C126.071 41.2296 125.522 41.091 124.993 40.9237C123.81 40.5508 122.545 40.3644 121.234 40.3644C119.726 40.3644 118.438 40.4026 117.303 41.0527C116.163 41.7363 115.662 42.5538 115.529 43.3138C115.147 45.5415 117.06 46.0816 120.771 48.2567C124.425 50.4078 126.385 52.2817 127.306 53.7063C128.375 55.3651 128.37 57.0382 128.026 59.022C127.578 61.6129 125.813 64.2517 122.932 65.92C119.984 67.6314 116.402 68.5014 112.28 68.5014C107.973 68.5014 104.199 67.4593 101.046 65.4038L102.85 63.3243C103.517 62.6025 104.824 62.4591 105.521 62.8511C107.739 64.1035 109.847 64.6437 112.065 64.6437C116.645 64.6437 118.119 62.6933 118.481 61.3596C118.744 60.3987 118.524 59.3136 117.575 58.3289C116.692 57.4158 114.885 56.3689 112.037 54.9157C109.394 53.5676 107.954 51.9806 107.248 50.8381C106.184 49.1219 106.065 47.0616 106.375 45.2738C106.78 42.8979 108.378 40.4886 110.978 38.9828C113.63 37.391 116.883 36.5879 120.642 36.5879Z" fill="white"/>
<path d="M148.9 37.0943H157.716C157.544 37.6583 156.938 39.5514 156.175 40.1298C154.959 41.0428 153.938 41.1528 153.017 41.1528C152.612 41.1528 152.34 41.1576 152.297 41.1528H148.042L147.932 41.6882L145.013 55.4173C144.335 58.6058 143.663 61.278 143.992 62.5543C144.168 63.2331 144.631 63.8928 145.881 63.8928C146.902 63.8928 147.765 63.453 148.691 62.6499C149.559 61.8994 150.417 61.2015 151.763 61.2015C152.473 61.2015 153.709 61.5696 154.338 62.2723C150.341 67.0526 145.561 68.4533 142.847 68.4533L142.68 68.4485C138.454 68.3624 136.427 67.0287 135.425 65.0066C134.824 63.8116 134.175 61.4835 135.029 57.4346L138.349 42.0132L138.53 41.1528H133.316L133.793 39.059C134.232 37.6153 135.682 37.0943 137.066 37.0943H139.403L139.499 36.535C139.508 36.4967 140.133 33.0788 143.043 30.9946C145.294 29.3836 148.357 29.374 150.522 29.374L149.072 36.2386L148.9 37.0943Z" fill="white"/>
<path d="M98.48 37.1144C99.0476 37.1144 102.511 37.057 103.231 37.1144L101.356 46.0153L98.1938 61.0065L98.1222 61.3029C97.4162 65.1988 94.9644 67.9284 91.8828 67.9284C90.261 67.9284 88.31 67.9332 87.2319 67.9475C88.4579 62.0725 91.5775 47.3969 91.7636 46.4217L92.9275 40.9578C93.6239 38.1517 95.9279 37.1144 98.48 37.1144Z" fill="white"/>
<path d="M65.3511 37.0273C65.9378 37.0273 66.973 37.056 67.4261 37.0943L49.4426 64.347C49.4236 64.3709 47.0576 67.9609 44.2956 67.9609C44.1573 67.9609 41.6816 67.9609 41.5719 67.9513L35.7284 39.2884C35.5186 37.7922 36.8256 37.0895 37.9132 37.0895L46.0034 37.0799L49.0324 55.3504L49.1946 56.5311L49.6239 55.7041L59.293 40.474C61.1868 37.3524 63.9582 37.0273 65.3511 37.0273Z" fill="white"/>
<path d="M30.7666 40.1435C29.1066 37.825 26.1014 36.6777 20.7588 36.6777C15.9171 36.6777 12.3967 37.6625 9.27225 39.6033L8.8477 39.871L9.23886 40.7171C9.39627 40.8892 9.84944 42.352 11.042 42.352C11.705 42.352 12.4396 42.156 13.2267 41.7831C15.2493 40.8127 16.5133 40.3443 18.9891 40.3443C20.9734 40.3443 22.3616 41.764 22.5714 42.9543C22.9006 44.8282 21.9799 45.7508 21.6985 46.1954L20.9639 46.683C20.6395 46.8455 20.1387 47.0797 19.5138 47.3331C18.4262 47.7777 17.3958 48.0884 14.2618 48.8007C10.7128 49.6085 1.53028 50.4499 0.137399 58.8681C-0.630596 63.4906 1.73063 68.6534 13.4652 68.6534C19.3516 68.6534 27.0888 65.9621 28.3099 60.1779C29.2401 55.78 31.4296 45.5692 31.4296 45.5692C31.4869 45.2154 32.3646 42.3711 30.7666 40.1435ZM18.7267 60.3882C18.3737 61.3108 17.9015 64.7001 14.1617 65.1016C12.1009 65.3263 8.11787 64.4419 9.31995 58.7629C10.0164 55.4884 12.3204 52.6393 16.5849 51.9939C19.3516 51.5733 21.2263 50.1344 21.2263 50.1344L18.7267 60.3882Z" fill="white"/>
<path d="M81.8447 82.208C81.8447 81.692 81.9347 81.236 82.1147 80.84C82.2947 80.444 82.5287 80.12 82.8167 79.868C83.1167 79.604 83.4467 79.406 83.8067 79.274C84.1787 79.142 84.5507 79.076 84.9227 79.076C85.2947 79.076 85.6607 79.142 86.0207 79.274C86.3927 79.406 86.7227 79.604 87.0107 79.868C87.3107 80.12 87.5507 80.444 87.7307 80.84C87.9107 81.236 88.0007 81.692 88.0007 82.208V82.856H86.1647V82.208C86.1647 81.764 86.0387 81.44 85.7867 81.236C85.5467 81.02 85.2587 80.912 84.9227 80.912C84.5867 80.912 84.2927 81.02 84.0407 81.236C83.8007 81.44 83.6807 81.764 83.6807 82.208V88.976C83.6807 89.42 83.8007 89.75 84.0407 89.966C84.2927 90.17 84.5867 90.272 84.9227 90.272C85.2587 90.272 85.5467 90.17 85.7867 89.966C86.0387 89.75 86.1647 89.42 86.1647 88.976V86.564H84.7067V84.944H88.0007V88.976C88.0007 89.504 87.9107 89.966 87.7307 90.362C87.5507 90.746 87.3107 91.07 87.0107 91.334C86.7227 91.586 86.3927 91.778 86.0207 91.91C85.6607 92.042 85.2947 92.108 84.9227 92.108C84.5507 92.108 84.1787 92.042 83.8067 91.91C83.4467 91.778 83.1167 91.586 82.8167 91.334C82.5287 91.07 82.2947 90.746 82.1147 90.362C81.9347 89.966 81.8447 89.504 81.8447 88.976V82.208ZM92.9827 88.13V89.372C92.9827 89.66 93.0607 89.882 93.2167 90.038C93.3847 90.194 93.6067 90.272 93.8827 90.272C94.2307 90.272 94.4587 90.17 94.5667 89.966C94.6867 89.762 94.7587 89.558 94.7827 89.354H96.6187C96.6187 89.738 96.5527 90.098 96.4207 90.434C96.3007 90.77 96.1207 91.058 95.8807 91.298C95.6407 91.55 95.3527 91.748 95.0167 91.892C94.6807 92.036 94.3027 92.108 93.8827 92.108C93.3187 92.108 92.8327 91.988 92.4247 91.748C92.0167 91.508 91.7047 91.19 91.4887 90.794C91.3567 90.554 91.2667 90.278 91.2187 89.966C91.1707 89.654 91.1467 89.312 91.1467 88.94V85.934C91.1467 85.562 91.1707 85.22 91.2187 84.908C91.2667 84.596 91.3567 84.32 91.4887 84.08C91.7047 83.684 92.0167 83.366 92.4247 83.126C92.8327 82.886 93.3187 82.766 93.8827 82.766C94.3027 82.766 94.6807 82.838 95.0167 82.982C95.3647 83.126 95.6527 83.33 95.8807 83.594C96.1207 83.846 96.3007 84.146 96.4207 84.494C96.5527 84.842 96.6187 85.214 96.6187 85.61V88.13H92.9827ZM92.9827 86.69H94.7827V85.646C94.7827 85.298 94.6987 85.04 94.5307 84.872C94.3747 84.692 94.1587 84.602 93.8827 84.602C93.6067 84.602 93.3847 84.692 93.2167 84.872C93.0607 85.04 92.9827 85.298 92.9827 85.646V86.69ZM99.7708 82.874H101.607V83.756H101.643C101.835 83.468 102.063 83.234 102.327 83.054C102.603 82.862 102.951 82.766 103.371 82.766C103.599 82.766 103.827 82.808 104.055 82.892C104.283 82.964 104.487 83.09 104.667 83.27C104.847 83.45 104.991 83.684 105.099 83.972C105.207 84.248 105.261 84.59 105.261 84.998V92H103.425V85.682C103.425 85.346 103.347 85.082 103.191 84.89C103.035 84.698 102.813 84.602 102.525 84.602C102.177 84.602 101.937 84.71 101.805 84.926C101.673 85.142 101.607 85.454 101.607 85.862V92H99.7708V82.874ZM110.241 88.13V89.372C110.241 89.66 110.319 89.882 110.475 90.038C110.643 90.194 110.865 90.272 111.141 90.272C111.489 90.272 111.717 90.17 111.825 89.966C111.945 89.762 112.017 89.558 112.041 89.354H113.877C113.877 89.738 113.811 90.098 113.679 90.434C113.559 90.77 113.379 91.058 113.139 91.298C112.899 91.55 112.611 91.748 112.275 91.892C111.939 92.036 111.561 92.108 111.141 92.108C110.577 92.108 110.091 91.988 109.683 91.748C109.275 91.508 108.963 91.19 108.747 90.794C108.615 90.554 108.525 90.278 108.477 89.966C108.429 89.654 108.405 89.312 108.405 88.94V85.934C108.405 85.562 108.429 85.22 108.477 84.908C108.525 84.596 108.615 84.32 108.747 84.08C108.963 83.684 109.275 83.366 109.683 83.126C110.091 82.886 110.577 82.766 111.141 82.766C111.561 82.766 111.939 82.838 112.275 82.982C112.623 83.126 112.911 83.33 113.139 83.594C113.379 83.846 113.559 84.146 113.679 84.494C113.811 84.842 113.877 85.214 113.877 85.61V88.13H110.241ZM110.241 86.69H112.041V85.646C112.041 85.298 111.957 85.04 111.789 84.872C111.633 84.692 111.417 84.602 111.141 84.602C110.865 84.602 110.643 84.692 110.475 84.872C110.319 85.04 110.241 85.298 110.241 85.646V86.69ZM117.029 82.874H118.865V83.846C119.237 83.51 119.603 83.246 119.963 83.054C120.323 82.862 120.767 82.766 121.295 82.766V84.71C121.115 84.638 120.929 84.602 120.737 84.602C120.545 84.602 120.335 84.638 120.107 84.71C119.891 84.77 119.687 84.878 119.495 85.034C119.315 85.19 119.165 85.394 119.045 85.646C118.925 85.898 118.865 86.21 118.865 86.582V92H117.029V82.874ZM127.207 91.064H127.171C126.931 91.4 126.685 91.658 126.433 91.838C126.193 92.018 125.851 92.108 125.407 92.108C125.191 92.108 124.969 92.072 124.741 92C124.513 91.94 124.297 91.826 124.093 91.658C123.901 91.478 123.739 91.232 123.607 90.92C123.487 90.596 123.427 90.182 123.427 89.678C123.427 89.162 123.469 88.712 123.553 88.328C123.637 87.932 123.787 87.608 124.003 87.356C124.231 87.092 124.531 86.9 124.903 86.78C125.275 86.648 125.749 86.582 126.325 86.582C126.457 86.582 126.589 86.588 126.721 86.6C126.853 86.612 127.015 86.624 127.207 86.636V85.682C127.207 85.37 127.141 85.112 127.009 84.908C126.877 84.704 126.637 84.602 126.289 84.602C126.049 84.602 125.827 84.68 125.623 84.836C125.431 84.992 125.305 85.22 125.245 85.52H123.463C123.523 84.692 123.799 84.032 124.291 83.54C124.531 83.3 124.819 83.114 125.155 82.982C125.491 82.838 125.869 82.766 126.289 82.766C126.673 82.766 127.033 82.826 127.369 82.946C127.705 83.066 127.993 83.246 128.233 83.486C128.485 83.726 128.683 84.026 128.827 84.386C128.971 84.746 129.043 85.166 129.043 85.646V92H127.207V91.064ZM127.207 88.076C127.003 88.04 126.835 88.022 126.703 88.022C126.307 88.022 125.965 88.118 125.677 88.31C125.401 88.49 125.263 88.826 125.263 89.318C125.263 89.666 125.347 89.948 125.515 90.164C125.683 90.38 125.917 90.488 126.217 90.488C126.529 90.488 126.769 90.386 126.937 90.182C127.117 89.978 127.207 89.69 127.207 89.318V88.076ZM132.087 79.184H133.923V89.426C133.923 89.774 133.983 90.014 134.103 90.146C134.235 90.266 134.475 90.344 134.823 90.38V92.108C134.403 92.108 134.019 92.072 133.671 92C133.335 91.94 133.047 91.82 132.807 91.64C132.579 91.448 132.399 91.184 132.267 90.848C132.147 90.512 132.087 90.08 132.087 89.552V79.184ZM142.637 79.184H144.473V92H142.637V79.184ZM147.949 82.874H149.785V83.756H149.821C150.013 83.468 150.241 83.234 150.505 83.054C150.781 82.862 151.129 82.766 151.549 82.766C151.777 82.766 152.005 82.808 152.233 82.892C152.461 82.964 152.665 83.09 152.845 83.27C153.025 83.45 153.169 83.684 153.277 83.972C153.385 84.248 153.439 84.59 153.439 84.998V92H151.603V85.682C151.603 85.346 151.525 85.082 151.369 84.89C151.213 84.698 150.991 84.602 150.703 84.602C150.355 84.602 150.115 84.71 149.983 84.926C149.851 85.142 149.785 85.454 149.785 85.862V92H147.949V82.874ZM160.075 85.43C160.063 85.118 159.961 84.884 159.769 84.728C159.589 84.572 159.379 84.494 159.139 84.494C158.851 84.494 158.629 84.59 158.473 84.782C158.317 84.962 158.239 85.172 158.239 85.412C158.239 85.58 158.281 85.748 158.365 85.916C158.449 86.072 158.665 86.216 159.013 86.348L160.093 86.78C160.777 87.044 161.245 87.404 161.497 87.86C161.761 88.316 161.893 88.814 161.893 89.354C161.893 89.738 161.821 90.098 161.677 90.434C161.545 90.758 161.359 91.046 161.119 91.298C160.879 91.55 160.591 91.748 160.255 91.892C159.919 92.036 159.553 92.108 159.157 92.108C158.797 92.108 158.455 92.048 158.131 91.928C157.807 91.808 157.519 91.634 157.267 91.406C157.027 91.178 156.829 90.896 156.673 90.56C156.517 90.212 156.433 89.81 156.421 89.354H158.149C158.185 89.606 158.269 89.84 158.401 90.056C158.545 90.272 158.791 90.38 159.139 90.38C159.403 90.38 159.637 90.296 159.841 90.128C160.057 89.948 160.165 89.702 160.165 89.39C160.165 89.138 160.099 88.922 159.967 88.742C159.835 88.562 159.595 88.406 159.247 88.274L158.365 87.95C157.789 87.734 157.333 87.416 156.997 86.996C156.673 86.564 156.511 86.042 156.511 85.43C156.511 85.046 156.583 84.692 156.727 84.368C156.871 84.032 157.063 83.75 157.303 83.522C157.555 83.282 157.843 83.096 158.167 82.964C158.491 82.832 158.839 82.766 159.211 82.766C159.583 82.766 159.925 82.838 160.237 82.982C160.561 83.114 160.837 83.3 161.065 83.54C161.293 83.768 161.473 84.05 161.605 84.386C161.737 84.71 161.803 85.058 161.803 85.43H160.075ZM170.363 92H168.527V91.118H168.491C168.299 91.406 168.065 91.646 167.789 91.838C167.525 92.018 167.183 92.108 166.763 92.108C166.535 92.108 166.307 92.072 166.079 92C165.851 91.916 165.647 91.784 165.467 91.604C165.287 91.424 165.143 91.196 165.035 90.92C164.927 90.632 164.873 90.284 164.873 89.876V82.874H166.709V89.192C166.709 89.528 166.787 89.792 166.943 89.984C167.099 90.176 167.321 90.272 167.609 90.272C167.957 90.272 168.197 90.164 168.329 89.948C168.461 89.732 168.527 89.42 168.527 89.012V82.874H170.363V92ZM173.669 82.874H175.505V83.846C175.877 83.51 176.243 83.246 176.603 83.054C176.963 82.862 177.407 82.766 177.935 82.766V84.71C177.755 84.638 177.569 84.602 177.377 84.602C177.185 84.602 176.975 84.638 176.747 84.71C176.531 84.77 176.327 84.878 176.135 85.034C175.955 85.19 175.805 85.394 175.685 85.646C175.565 85.898 175.505 86.21 175.505 86.582V92H173.669V82.874ZM183.848 91.064H183.812C183.572 91.4 183.326 91.658 183.074 91.838C182.834 92.018 182.492 92.108 182.048 92.108C181.832 92.108 181.61 92.072 181.382 92C181.154 91.94 180.938 91.826 180.734 91.658C180.542 91.478 180.38 91.232 180.248 90.92C180.128 90.596 180.068 90.182 180.068 89.678C180.068 89.162 180.11 88.712 180.194 88.328C180.278 87.932 180.428 87.608 180.644 87.356C180.872 87.092 181.172 86.9 181.544 86.78C181.916 86.648 182.39 86.582 182.966 86.582C183.098 86.582 183.23 86.588 183.362 86.6C183.494 86.612 183.656 86.624 183.848 86.636V85.682C183.848 85.37 183.782 85.112 183.65 84.908C183.518 84.704 183.278 84.602 182.93 84.602C182.69 84.602 182.468 84.68 182.264 84.836C182.072 84.992 181.946 85.22 181.886 85.52H180.104C180.164 84.692 180.44 84.032 180.932 83.54C181.172 83.3 181.46 83.114 181.796 82.982C182.132 82.838 182.51 82.766 182.93 82.766C183.314 82.766 183.674 82.826 184.01 82.946C184.346 83.066 184.634 83.246 184.874 83.486C185.126 83.726 185.324 84.026 185.468 84.386C185.612 84.746 185.684 85.166 185.684 85.646V92H183.848V91.064ZM183.848 88.076C183.644 88.04 183.476 88.022 183.344 88.022C182.948 88.022 182.606 88.118 182.318 88.31C182.042 88.49 181.904 88.826 181.904 89.318C181.904 89.666 181.988 89.948 182.156 90.164C182.324 90.38 182.558 90.488 182.858 90.488C183.17 90.488 183.41 90.386 183.578 90.182C183.758 89.978 183.848 89.69 183.848 89.318V88.076ZM188.836 82.874H190.672V83.756H190.708C190.9 83.468 191.128 83.234 191.392 83.054C191.668 82.862 192.016 82.766 192.436 82.766C192.664 82.766 192.892 82.808 193.12 82.892C193.348 82.964 193.552 83.09 193.732 83.27C193.912 83.45 194.056 83.684 194.164 83.972C194.272 84.248 194.326 84.59 194.326 84.998V92H192.49V85.682C192.49 85.346 192.412 85.082 192.256 84.89C192.1 84.698 191.878 84.602 191.59 84.602C191.242 84.602 191.002 84.71 190.87 84.926C190.738 85.142 190.672 85.454 190.672 85.862V92H188.836V82.874ZM199.576 89.372C199.576 89.66 199.654 89.882 199.81 90.038C199.978 90.194 200.2 90.272 200.476 90.272C200.824 90.272 201.052 90.17 201.16 89.966C201.28 89.762 201.352 89.558 201.376 89.354H203.212C203.212 89.738 203.146 90.098 203.014 90.434C202.894 90.77 202.714 91.058 202.474 91.298C202.234 91.55 201.946 91.748 201.61 91.892C201.274 92.036 200.896 92.108 200.476 92.108C199.912 92.108 199.426 91.988 199.018 91.748C198.61 91.508 198.298 91.19 198.082 90.794C197.95 90.554 197.86 90.278 197.812 89.966C197.764 89.654 197.74 89.312 197.74 88.94V85.934C197.74 85.562 197.764 85.22 197.812 84.908C197.86 84.596 197.95 84.32 198.082 84.08C198.298 83.684 198.61 83.366 199.018 83.126C199.426 82.886 199.912 82.766 200.476 82.766C200.896 82.766 201.274 82.838 201.61 82.982C201.958 83.126 202.246 83.33 202.474 83.594C202.714 83.846 202.894 84.152 203.014 84.512C203.146 84.872 203.212 85.262 203.212 85.682H201.376C201.376 85.31 201.292 85.04 201.124 84.872C200.968 84.692 200.752 84.602 200.476 84.602C200.2 84.602 199.978 84.692 199.81 84.872C199.654 85.04 199.576 85.298 199.576 85.646V89.372ZM207.768 88.13V89.372C207.768 89.66 207.846 89.882 208.002 90.038C208.17 90.194 208.392 90.272 208.668 90.272C209.016 90.272 209.244 90.17 209.352 89.966C209.472 89.762 209.544 89.558 209.568 89.354H211.404C211.404 89.738 211.338 90.098 211.206 90.434C211.086 90.77 210.906 91.058 210.666 91.298C210.426 91.55 210.138 91.748 209.802 91.892C209.466 92.036 209.088 92.108 208.668 92.108C208.104 92.108 207.618 91.988 207.21 91.748C206.802 91.508 206.49 91.19 206.274 90.794C206.142 90.554 206.052 90.278 206.004 89.966C205.956 89.654 205.932 89.312 205.932 88.94V85.934C205.932 85.562 205.956 85.22 206.004 84.908C206.052 84.596 206.142 84.32 206.274 84.08C206.49 83.684 206.802 83.366 207.21 83.126C207.618 82.886 208.104 82.766 208.668 82.766C209.088 82.766 209.466 82.838 209.802 82.982C210.15 83.126 210.438 83.33 210.666 83.594C210.906 83.846 211.086 84.146 211.206 84.494C211.338 84.842 211.404 85.214 211.404 85.61V88.13H207.768ZM207.768 86.69H209.568V85.646C209.568 85.298 209.484 85.04 209.316 84.872C209.16 84.692 208.944 84.602 208.668 84.602C208.392 84.602 208.17 84.692 208.002 84.872C207.846 85.04 207.768 85.298 207.768 85.646V86.69Z" fill="white"/>
</svg>
