<svg width="140" height="101" viewBox="0 0 140 101" fill="none" xmlns="http://www.w3.org/2000/svg">
<rect y="0.178711" width="140" height="100" rx="4" fill="#003D5E"/>
<path fill-rule="evenodd" clip-rule="evenodd" d="M36.6397 49.7423L34.7163 39.4815C34.3918 38.0993 32.9675 38.1796 32.9675 38.1796L29.8161 38.2883C26.4903 38.3997 24.3641 41.7466 24.3641 41.7466L19.2319 49.7423H36.6397ZM74.5188 45.0467H66.2289C65.663 45.0467 65.1975 44.6251 65.1332 44.0814H65.1248V43.9519V41.1234V39.2575C65.1248 38.6532 65.6192 38.1794 66.2289 38.1794H84.9206C85.5299 38.1794 86.0242 38.6532 86.0242 39.2575V42.2093C86.0242 42.2093 86.113 43.4786 84.9211 44.6604L81.0754 49.7421H70.9541C72.3425 47.9111 73.6633 46.1726 74.3565 45.2602L74.3649 45.2492L74.5188 45.0467ZM76.2561 56.1103H84.9206C85.5085 56.1103 85.9871 56.566 86.0205 57.1404L86.0242 57.1398V61.771C86.0242 62.3749 85.5299 62.7726 84.9206 62.7726H66.2289C65.6192 62.7726 65.1248 62.3749 65.1248 61.771V58.362C65.1248 58.362 65.2544 57.3325 66.0983 56.1751C66.4552 55.6852 68.0792 53.5371 69.8328 51.2218H79.9556L76.2561 56.1103ZM30.2056 61.1924L28.5241 51.221H36.9189L38.8941 61.6274C38.8941 61.6274 39.3173 62.7724 38.1489 62.7724H32.2826C32.2826 62.7724 30.5384 62.8469 30.2056 61.1924ZM18.2948 51.221L12.5512 60.2913C11.0584 62.6066 13.0706 62.7724 13.0706 62.7724H19.4313C20.34 62.9008 21.3787 61.3203 21.3787 61.3203L27.5915 51.221H18.2948ZM55.3887 49.7422L56.2974 51.2218H62.7881V61.6421C62.7881 62.2459 62.2943 62.7726 61.684 62.7726H55.9739C54.9571 62.8145 54.1858 62.0605 53.5719 61.1279L48.3148 52.1234V61.6426C48.3148 62.2469 47.8199 62.7726 47.2107 62.7726H41.6944C41.0846 62.7726 40.5903 62.2459 40.5903 61.6421V51.2212H47.8602L46.9515 49.7422H40.5903V39.2572C40.5903 38.6534 41.0846 38.1795 41.6944 38.1795H47.2107C48.2531 38.1795 49.3201 38.8388 49.9367 40.0288C50.2768 40.6854 54.8703 48.7091 54.8703 48.7091V39.3219C54.8703 38.7176 55.3641 38.1795 55.9739 38.1795H61.684C62.2943 38.1795 62.7881 38.6534 62.7881 39.2572V49.7422H55.3887Z" fill="white"/>
<path fill-rule="evenodd" clip-rule="evenodd" d="M111.528 40.7398C111.528 38.6394 109.858 36.9367 107.739 36.9367C105.619 36.9367 103.95 38.6394 103.95 40.7398C103.95 41.5425 104.202 42.2861 104.63 42.8998C104.801 43.2022 104.988 43.4673 105.162 43.7132C105.422 44.082 105.652 44.4076 105.75 44.7506C106.001 45.6175 105.736 46.1991 105.31 46.3726C104.759 46.5973 103.894 46.2141 103.894 46.2141C99.9959 44.7051 97.2338 40.9475 97.2338 36.5493C97.2338 30.8218 101.959 26.1787 107.739 26.1787C113.518 26.1787 118.243 30.8218 118.243 36.5493C118.243 40.9475 115.482 44.7051 111.583 46.2141C111.583 46.2141 110.718 46.5973 110.168 46.3726C109.741 46.1991 109.477 45.6175 109.727 44.7506C109.826 44.4077 110.055 44.0824 110.315 43.7137C110.489 43.4677 110.676 43.2024 110.847 42.8998C111.276 42.2861 111.528 41.5425 111.528 40.7398ZM100.621 61.9491C102.588 60.7409 103.159 58.0201 103.159 55.5458C103.159 50.3506 98.9085 46.1384 93.666 46.1384C91.6737 46.1384 89.8694 46.4455 88.6159 47.549C87.6272 48.419 87.9857 49.3413 88.5986 50.0316L98.3144 61.6342C98.3144 61.6342 99.2137 62.8139 100.621 61.9491ZM114.856 61.9491C112.89 60.7409 112.319 58.0201 112.319 55.5458C112.319 50.3506 116.569 46.1384 121.812 46.1384C123.804 46.1384 125.608 46.4455 126.862 47.549C127.85 48.419 127.492 49.3413 126.879 50.0316L117.163 61.6342C117.163 61.6342 116.264 62.8139 114.856 61.9491Z" fill="#169CD4"/>
</svg>
