<svg width="140" height="101" viewBox="0 0 140 101" fill="none" xmlns="http://www.w3.org/2000/svg">
<rect x="0.5" y="0.678711" width="139" height="99" rx="3.5" fill="white" stroke="#D6D6D6"/>
<path fill-rule="evenodd" clip-rule="evenodd" d="M78.6137 64.6479L75.5336 70.7127L72.4536 64.6479H69.1421V78.3952H72.5123V71.5222C72.5123 71.5222 74.1668 74.4211 74.4147 74.8538C74.6629 75.2866 75.086 75.5111 75.5333 75.5111C75.9814 75.5111 76.4049 75.2866 76.6529 74.8538C76.9008 74.4211 78.5553 71.5222 78.5553 71.5222V78.3952H81.9256V64.6479H78.6137Z" fill="#595A59"/>
<path fill-rule="evenodd" clip-rule="evenodd" d="M84.753 78.3955V64.6479H94.0757V67.6608H88.1229V69.9561H93.2081V72.9715H88.1229V75.3865H94.0757V78.3955H84.753Z" fill="#595A59"/>
<path fill-rule="evenodd" clip-rule="evenodd" d="M105.206 77.0838C104.031 78.2991 102.721 78.6257 101.22 78.6257C99.6212 78.6257 98.4068 78.0895 97.4066 77.0838C95.9613 75.6346 96.019 73.5466 96.019 71.4833C96.019 69.4174 95.9613 67.3471 97.4066 65.8968C98.4068 64.8937 99.5659 64.355 101.22 64.355C104.742 64.355 106.246 66.6501 106.572 68.9108H103.185C102.913 67.8667 102.373 67.3637 101.22 67.3637C100.603 67.3637 100.14 67.6369 99.8906 67.9649C99.5814 68.3697 99.3903 68.9726 99.3903 71.4833C99.3903 73.9917 99.5814 74.6317 99.8906 75.037C100.14 75.3695 100.603 75.6164 101.22 75.6164C101.932 75.6164 102.412 75.4052 102.721 75.0751C103.106 74.6892 103.243 74.0024 103.243 73.482V73.2882H101.22V70.4652H106.592V72.3777C106.592 74.6024 106.246 76.0236 105.206 77.0838Z" fill="#595A59"/>
<path fill-rule="evenodd" clip-rule="evenodd" d="M112.322 73.5975L113.583 69.6162L114.844 73.5975H112.322ZM114.882 64.6479H112.283L107.296 78.3955H110.762L111.435 76.3481H115.731L116.404 78.3955H119.87L114.882 64.6479Z" fill="#595A59"/>
<path fill-rule="evenodd" clip-rule="evenodd" d="M25.3635 72.0419H21.6268V77.0825H25.3635C27.0586 77.0825 28.118 76.0973 28.118 74.5522C28.118 73.0075 27.0586 72.0419 25.3635 72.0419ZM25.2096 65.9584H21.6268V70.7287H25.2096C26.7312 70.7287 27.9062 69.9754 27.9062 68.3338C27.9062 66.6921 26.7312 65.9584 25.2096 65.9584ZM25.4984 78.3957H20.1627V64.645H25.3251C27.7135 64.645 29.3701 66.0161 29.3701 68.3145C29.3701 69.763 28.5032 70.9023 27.3476 71.3273C28.6575 71.81 29.5821 72.9494 29.5821 74.591C29.5821 77.0825 27.9254 78.3957 25.4984 78.3957Z" fill="#595A59"/>
<path fill-rule="evenodd" clip-rule="evenodd" d="M36.1883 66.75L33.6072 74.0115H38.7309L36.1883 66.75ZM40.2525 78.3957L39.1546 75.2864H33.1641L32.0661 78.3957H30.506L35.5525 64.645H36.7854L41.8127 78.3957H40.2525Z" fill="#595A59"/>
<path fill-rule="evenodd" clip-rule="evenodd" d="M52.0019 78.3955L44.7208 67.3679V78.3955H43.2569V64.645H44.6437L51.9249 75.6339V64.645H53.3887V78.3955H52.0019Z" fill="#595A59"/>
<path fill-rule="evenodd" clip-rule="evenodd" d="M65.1185 78.3955L60.9386 71.0762L58.0493 74.552V78.3955H56.5854V64.645H58.0493V72.5437L64.4443 64.645H66.2357L61.9211 69.9561L66.8522 78.3955H65.1185Z" fill="#595A59"/>
<path fill-rule="evenodd" clip-rule="evenodd" d="M75.0634 20.2271L70.0161 31.5901L78.0086 49.5846L91.0462 20.2271H75.0634Z" fill="#949594"/>
<path fill-rule="evenodd" clip-rule="evenodd" d="M91.0461 20.2271H75.0633L90.5623 55.1265H106.548L91.0461 20.2271Z" fill="#595A59"/>
<path fill-rule="evenodd" clip-rule="evenodd" d="M64.9739 20.2271H48.9911L62.0284 49.5846L70.0212 31.5901L64.9739 20.2271Z" fill="#EC952D"/>
<path fill-rule="evenodd" clip-rule="evenodd" d="M48.9912 20.2271L33.4898 55.1265H49.4755L64.974 20.2271H48.9912Z" fill="#F9C623"/>
<path fill-rule="evenodd" clip-rule="evenodd" d="M70.0188 31.5898L62.0284 49.5845C63.4223 52.6096 66.4778 54.6994 70.0188 54.6994C73.5599 54.6994 76.6152 52.6096 78.0085 49.5845L70.0188 31.5898Z" fill="#E3672A"/>
</svg>
