<svg width="140" height="101" viewBox="0 0 140 101" fill="none" xmlns="http://www.w3.org/2000/svg">
<rect y="0.178711" width="140" height="100" rx="4" fill="#0060AF"/>
<path fill-rule="evenodd" clip-rule="evenodd" d="M28.7945 59.7613C28.7945 58.4193 28.81 54.832 28.7749 54.39C28.8055 49.052 24.6883 45.2865 22.0872 45.58C20.2873 45.7272 18.7786 46.4191 17.969 48.4093C17.218 50.2641 17.8895 52.7312 20.3852 53.3102C23.0536 53.9319 24.6123 54.4492 25.74 55.1789C27.1219 56.0723 28.25 57.7793 28.2799 59.7635" fill="white"/>
<path fill-rule="evenodd" clip-rule="evenodd" d="M27.6792 59.7633C27.6879 58.043 26.6693 56.5218 25.338 55.7043C24.1571 54.9818 22.5717 54.5073 20.0141 53.8956C19.2235 53.7049 18.3966 53.2814 18.1405 52.7417C17.4633 53.385 17.3403 54.8312 17.4594 55.6766C17.5979 56.6544 18.8104 58.2664 20.636 58.3295C21.7509 58.3717 23.1604 58.1034 23.8364 57.968C25.0024 57.7306 26.8474 58.4191 27.1411 59.7612" fill="white"/>
<path fill-rule="evenodd" clip-rule="evenodd" d="M29.7375 37.2603C26.6418 37.2603 23.9683 39.1846 23.9776 42.5145C23.9873 45.3146 26.3761 46.8136 27.2288 47.8843C28.517 49.4978 29.2142 51.4076 29.2863 54.3298C29.343 56.6554 29.3401 58.952 29.3527 59.7658H30.0357C30.0241 58.9143 29.9932 56.4763 30.0283 54.2578C30.0747 51.3347 30.797 49.4978 32.0858 47.8843C32.9459 46.8136 35.3325 45.3146 35.3377 42.5145C35.3496 39.1846 32.677 37.2603 29.5845 37.2603" fill="white"/>
<path fill-rule="evenodd" clip-rule="evenodd" d="M30.5231 59.7613C30.5231 58.4193 30.507 54.832 30.5414 54.39C30.5111 49.052 34.6258 45.2865 37.2291 45.58C39.0289 45.7272 40.5357 46.4191 41.3479 48.4093C42.0979 50.2641 41.4229 52.7312 38.9304 53.3102C36.2601 53.9319 34.7037 54.4492 33.573 55.1789C32.1928 56.0723 31.1436 57.7793 31.1114 59.7635" fill="white"/>
<path fill-rule="evenodd" clip-rule="evenodd" d="M31.6376 59.7633C31.6279 58.043 32.6462 56.5218 33.9736 55.7043C35.1597 54.9818 36.7467 54.5073 39.302 53.8956C40.0942 53.7049 40.9202 53.2814 41.1717 52.7417C41.8522 53.385 41.9752 54.8312 41.8557 55.6766C41.7147 56.6544 40.5051 58.2664 38.6827 58.3295C37.5685 58.3717 36.1512 58.1034 35.4782 57.968C34.3166 57.7306 32.4665 58.4191 32.1715 59.7612" fill="white"/>
<path fill-rule="evenodd" clip-rule="evenodd" d="M32.5924 65.3169L32.1966 62.5924L33.1527 62.4557C33.3852 62.426 33.6686 62.4642 33.782 62.6015C33.9073 62.7451 33.9456 62.8637 33.9697 63.052C34.0061 63.2851 33.9346 63.5541 33.6564 63.6882V63.6964C33.9668 63.6964 34.1546 63.9068 34.2093 64.262C34.217 64.3373 34.2409 64.5182 34.217 64.6694C34.1539 65.0291 33.9266 65.1451 33.5421 65.1958L32.5924 65.3169ZM33.2078 64.8294C33.3212 64.8139 33.4361 64.8081 33.526 64.7541C33.6638 64.6694 33.6512 64.4885 33.6319 64.3537C33.5843 64.0583 33.5025 63.9457 33.1698 63.9921L32.9605 64.0225L33.0932 64.8443L33.2078 64.8294ZM33.0078 63.5702C33.1344 63.551 33.3057 63.5365 33.3772 63.4232C33.4149 63.3476 33.4625 63.2875 33.431 63.1194C33.392 62.9202 33.3221 62.7964 33.0532 62.8443L32.803 62.8823L32.9019 63.5805L33.0078 63.5702Z" fill="white"/>
<path fill-rule="evenodd" clip-rule="evenodd" d="M36.7342 63.6788C36.7416 63.7295 36.7503 63.7859 36.7535 63.8366C36.8308 64.3333 36.7342 64.7449 36.1416 64.8581C35.2654 65.0169 35.0976 64.5042 34.9437 63.7859L34.8616 63.3971C34.7408 62.7101 34.6889 62.1898 35.543 62.0292C36.0244 61.9466 36.3426 62.1272 36.4749 62.5789C36.4956 62.6463 36.5213 62.7128 36.531 62.7808L36.007 62.8828C35.9465 62.7128 35.8663 62.4095 35.6306 62.435C35.2074 62.4833 35.3472 62.9793 35.3907 63.187L35.5481 63.9329C35.5955 64.1584 35.6895 64.5188 36.0557 64.4492C36.3529 64.3931 36.2231 63.9565 36.1967 63.7774" fill="white"/>
<path fill-rule="evenodd" clip-rule="evenodd" d="M37.575 64.503L37.394 61.6834L38.0976 61.481L39.5735 63.9332L39.0193 64.0895L38.6696 63.4663L38.0542 63.6406L38.1337 64.3491L37.575 64.503ZM38.0026 63.1852L38.4474 63.0638L37.8567 61.923L38.0026 63.1852Z" fill="white"/>
<path fill-rule="evenodd" clip-rule="evenodd" d="M20.1878 62.3714C20.4081 61.7069 20.6052 61.2172 21.446 61.4346C21.8959 61.5533 22.1747 61.74 22.1615 62.2327C22.1593 62.3422 22.121 62.4543 22.0958 62.5623L21.5725 62.4263C21.6411 62.154 21.6846 61.9382 21.3291 61.835C20.9182 61.7287 20.818 62.1987 20.7613 62.4014L20.5485 63.1403C20.4808 63.3598 20.3997 63.7226 20.7613 63.8164C21.0602 63.892 21.2412 63.6157 21.3494 63.212L20.9835 63.1203L21.1101 62.6929L21.9709 62.9536L21.5622 64.3783L21.1661 64.2769L21.2553 63.9758H21.2441C21.0615 64.2223 20.8393 64.2481 20.6444 64.2125C19.7836 63.9934 19.8735 63.463 20.0789 62.7545" fill="white"/>
<path fill-rule="evenodd" clip-rule="evenodd" d="M23.3916 63.5747L23.1324 64.7337L22.5489 64.615L23.1707 61.9087L24.1655 62.1203C24.7477 62.239 24.9235 62.483 24.8411 62.9864C24.7941 63.2751 24.643 63.5859 24.2743 63.5607L24.2705 63.5562C24.5822 63.6588 24.6086 63.8072 24.5542 64.0631C24.5307 64.1724 24.3687 64.8336 24.4804 64.9405L24.4843 65.0218L23.8805 64.8731C23.8554 64.69 23.941 64.3603 23.9748 64.1776C24.0086 64.0161 24.0631 63.7884 23.8892 63.7031C23.7533 63.6345 23.7024 63.6378 23.5485 63.6047L23.3916 63.5747ZM23.4911 63.1555L23.884 63.2553C24.1226 63.2881 24.2553 63.1715 24.3023 62.8995C24.3448 62.6503 24.2898 62.5532 24.0756 62.5049L23.6544 62.4242L23.4911 63.1555Z" fill="white"/>
<path fill-rule="evenodd" clip-rule="evenodd" d="M27.1345 62.5128L27.7116 62.576L27.463 64.4787C27.3422 65.0819 27.0949 65.3454 26.3909 65.2632C25.6747 65.1776 25.5047 64.8703 25.5478 64.2623L25.7984 62.3613L26.38 62.4239L26.1304 64.2823C26.1037 64.4842 26.0544 64.7832 26.435 64.8196C26.7729 64.8439 26.8495 64.6327 26.8878 64.3704" fill="white"/>
<path fill-rule="evenodd" clip-rule="evenodd" d="M28.3476 65.3671L28.5215 62.6465L29.63 62.6917C30.1542 62.7163 30.2911 63.1194 30.275 63.5044C30.2595 63.7384 30.1823 63.9998 29.9658 64.1416C29.7884 64.2621 29.5601 64.2906 29.3488 64.2809L28.9875 64.2621L28.9154 65.4023L28.3476 65.3671ZM29.0036 63.8471L29.2973 63.8626C29.5359 63.8708 29.6941 63.7818 29.7147 63.4516C29.7266 63.1346 29.5991 63.0806 29.2899 63.0678L29.0574 63.0603L29.0036 63.8471Z" fill="white"/>
<path fill-rule="evenodd" clip-rule="evenodd" d="M106.548 39.89L102.141 47.4301C100.478 46.1567 98.447 45.2198 95.8556 45.2198C89.7231 45.2198 87.2319 49.5287 87.2319 52.5641C87.2319 54.8176 88.7969 58.1417 94.2535 58.1417C96.5441 58.1417 99.7999 56.6399 100.737 55.9562L96.3789 64.704C94.3015 65.0947 93.6188 65.3369 91.8604 65.3882C82.0938 65.6629 78.1476 60.0071 78.1502 54.2283C78.1569 46.5883 85.3621 37.2972 97.3073 37.2972C98.039 37.2972 98.9342 37.5361 99.6997 37.8006L100.474 36.8677" fill="white"/>
<path fill-rule="evenodd" clip-rule="evenodd" d="M124.731 37.104L125.979 64.5077H116.692L116.687 59.8081H110.354L108.27 64.5077H98.198L108.728 44.9392L106.354 44.9246L110.865 37.104H124.731ZM116.626 45.4874L113.046 53.4583H116.734L116.626 45.4874Z" fill="white"/>
<path fill-rule="evenodd" clip-rule="evenodd" d="M72.2873 37.1041C76.8863 37.1283 79.4851 39.4816 79.4851 42.8807C79.4851 46.0148 76.7443 48.7885 73.7355 50.2229C76.8331 51.2966 77.1011 53.9316 77.1011 55.7956C77.1011 60.2996 72.3073 64.5078 66.0756 64.5078H52.4848L57.7861 45.2118L55.6085 45.2L60.06 37.1041C60.06 37.1041 68.5475 37.0798 72.2873 37.1041ZM67.7753 48.2148C68.7266 48.2148 70.4063 47.9877 70.8262 46.2522C71.2864 44.3679 69.7101 44.3172 68.9539 44.3172L66.2521 44.3063L65.3098 48.2148H67.7753ZM63.9553 53.0573L62.7113 57.5611H65.893C67.1444 57.5611 68.8502 56.9752 69.2682 55.5096C69.6811 54.04 68.4886 53.0573 67.2417 53.0573H63.9553Z" fill="white"/>
<path fill-rule="evenodd" clip-rule="evenodd" d="M29.8598 67.8752C25.154 67.8752 20.3183 66.7826 15.4887 64.6218L15.3702 64.5669L15.3136 64.453C13.1463 60.1405 11.9998 55.4239 11.9998 50.809C11.9998 46.2008 13.0993 41.6858 15.2678 37.379L15.3277 37.2646L15.4485 37.2075C19.9161 35.2124 24.7218 34.2021 29.7375 34.2021C34.4092 34.2021 39.3991 35.3269 44.1646 37.461L44.2866 37.5123L44.3433 37.6289C46.5518 42.0209 47.7166 46.7366 47.7166 51.2753C47.7166 55.7958 46.5982 60.3151 44.3868 64.7044L44.3288 64.8195L44.2058 64.8729C39.8062 66.8361 34.8452 67.8752 29.8598 67.8752ZM15.9357 64.0305C20.6271 66.1112 25.3066 67.1615 29.8598 67.1615C34.6878 67.1615 39.489 66.1667 43.7633 64.2809C45.8865 60.0276 46.9627 55.6501 46.9627 51.2753C46.9627 46.8823 45.8395 42.3133 43.7147 38.0502C39.09 36.0008 34.2601 34.914 29.7375 34.914C24.8818 34.914 20.2275 35.8848 15.8952 37.8004C13.8155 41.9745 12.7569 46.3486 12.7569 50.809C12.7569 55.2773 13.8567 59.8485 15.9357 64.0305Z" fill="white"/>
</svg>
