<svg width="140" height="101" viewBox="0 0 140 101" fill="none" xmlns="http://www.w3.org/2000/svg">
<rect y="0.178711" width="140" height="100" rx="4" fill="#004F91"/>
<path fill-rule="evenodd" clip-rule="evenodd" d="M102 51.1769C102 34.0563 88.1187 20.1787 71.0018 20.1787C53.8791 20.1787 40 34.0563 40 51.1769C40 68.2952 53.8791 82.1772 71.0018 82.1772C88.1187 82.1772 102 68.2952 102 51.1769ZM63.2701 76.5074C65.7293 76.5074 67.5642 76.2664 67.6964 72.9221H73.749C73.8812 76.2664 75.7396 76.3751 78.1371 76.3751V78.0712H63.2701V76.5074ZM78.973 48.4745C82.2138 49.5007 89.8199 52.9691 89.8199 60.1448C89.8199 67.2221 83.1489 71.4376 75.2306 71.4376H52.1801L52.2036 69.6012C56.3853 69.6012 57.6237 69.0503 57.6237 64.7805V37.7731C57.6237 33.0199 55.7477 32.7224 52.1955 32.7224V31.0139C52.861 30.9984 61.2347 31.0094 67.6964 31.0139C67.5642 27.6658 65.7293 27.4227 63.2701 27.4227V25.8618H78.1371V27.5571C75.7396 27.5571 73.8812 27.6658 73.749 31.0139H75.2306C78.5742 31.0139 86.7848 32.1649 86.8002 38.9248C86.812 43.6684 83.6079 46.6859 78.973 48.4745ZM83.4441 61.2804C83.4441 55.6664 79.5893 51.929 74.9 49.6645C71.8414 50.3292 68.251 50.7185 64.8927 50.7472L65.7367 48.653C66.4991 48.628 67.0765 48.581 67.6964 48.5443V34.5014H73.749V47.6364C78.821 46.1394 80.9445 43.1293 80.9445 39.6344C80.9445 35.1552 77.548 33.0162 73.7336 33.0162L63.6881 33.0199V64.9046C63.6881 68.2798 65.7176 68.9872 67.6964 69.0224V52.4381C69.9654 52.3587 72.4033 52.0363 73.749 51.7234V69.0224C78.5859 69.018 83.4441 66.0711 83.4441 61.2804Z" fill="white"/>
</svg>
