<svg width="140" height="101" viewBox="0 0 140 101" fill="none" xmlns="http://www.w3.org/2000/svg">
<rect y="0.178711" width="140" height="100" rx="4" fill="#F5F7F9"/>
<mask id="mask0_4275_2015" style="mask-type:luminance" maskUnits="userSpaceOnUse" x="0" y="0" width="140" height="101">
<rect y="0.178711" width="140" height="100" rx="4" fill="white"/>
</mask>
<g mask="url(#mask0_4275_2015)">
<path fill-rule="evenodd" clip-rule="evenodd" d="M66 100.908C66 100.908 43 98.9085 26 91.9085C8.42135 84.6702 0 76.7694 0 63.9085C0 33.9085 0 100.908 0 100.908H66Z" fill="#165781"/>
</g>
<path fill-rule="evenodd" clip-rule="evenodd" d="M53.0138 27.1933L52.2959 30.7304C59.3745 30.7033 81.6445 22.4724 82.6791 17.561C82.6791 17.5618 82.747 17.239 82.8139 16.9163C82.8806 16.5933 82.9459 16.2705 82.9412 16.2705C73.2939 22.8002 58.7184 27.1794 53.0138 27.1933ZM51.6633 33.2972L50.9949 36.5538C57.8186 36.5397 80.3426 28.2951 81.3772 23.3849L81.6628 21.9791C71.6865 28.9277 57.7146 33.1276 51.6633 33.2972ZM50.2091 39.2384L49.5161 42.6522L49.5202 42.7728C56.4201 42.6172 78.8422 34.5098 79.8746 29.606L80.2151 27.9261C72.4827 33.3324 56.4363 39.272 50.2091 39.2384Z" fill="url(#paint0_linear_4275_2015)"/>
<path fill-rule="evenodd" clip-rule="evenodd" d="M16.1186 50.144H18.7041V59.2278H18.7634C19.6846 57.6149 21.3484 56.5688 23.6665 56.5688C27.2333 56.5688 29.7573 59.5561 29.7268 63.9514C29.7268 69.1185 26.4896 71.6889 23.2793 71.6889C21.1989 71.6889 19.5346 70.8815 18.4661 68.9698H18.3762L18.2596 71.3604H16C16.0601 70.3735 16.1186 68.908 16.1186 67.6249V50.144ZM18.7041 65.5627C18.7041 65.8913 18.7634 66.2182 18.8235 66.5189C19.3281 68.3405 20.843 69.5974 22.7446 69.5974C25.4783 69.5974 27.1125 67.3552 27.1125 64.0381C27.1125 61.1396 25.6262 58.6588 22.834 58.6588C21.0502 58.6588 19.3867 59.8846 18.8512 61.8879C18.7927 62.1867 18.7041 62.5434 18.7041 62.9629V65.5627Z" fill="#165781"/>
<path fill-rule="evenodd" clip-rule="evenodd" d="M42.7716 67.8935C42.7716 69.1498 42.831 70.374 43.0089 71.3607H40.632L40.4234 69.5372H40.3349C39.5313 70.6744 37.9856 71.6892 35.9377 71.6892C33.0248 71.6892 31.5413 69.6286 31.5413 67.5371C31.5413 64.0386 34.6298 62.1255 40.1854 62.1578V61.8571C40.1854 60.6626 39.8595 58.5108 36.9187 58.5108C35.5794 58.5108 34.1847 58.9277 33.1734 59.5874L32.5782 57.8538C33.7672 57.0776 35.4932 56.5693 37.3033 56.5693C41.7018 56.5693 42.7716 59.5874 42.7716 62.4848V67.8935ZM40.246 63.9784C37.3919 63.918 34.1544 64.4278 34.1544 67.2351C34.1544 68.9392 35.2831 69.748 36.6192 69.748C38.4923 69.748 39.68 68.5503 40.096 67.3263C40.1854 67.0553 40.246 66.7578 40.246 66.4897V63.9784Z" fill="#165781"/>
<path fill-rule="evenodd" clip-rule="evenodd" d="M46.7837 60.8097C46.7837 59.316 46.752 58.0936 46.6642 56.8959H48.9798L49.1298 59.2866H49.1891C49.903 57.9138 51.5668 56.5674 53.9443 56.5674C55.9324 56.5674 59.0238 57.7635 59.0238 62.723V71.359H56.4083V63.0221C56.4083 60.6903 55.5485 58.7475 53.0812 58.7475C51.358 58.7475 50.0196 59.9744 49.5743 61.4389C49.4556 61.7658 49.3955 62.215 49.3955 62.6657V71.359H46.7837" fill="#165781"/>
<path fill-rule="evenodd" clip-rule="evenodd" d="M65.4421 63.5303H65.5014C65.8579 63.022 66.3619 62.3946 66.7798 61.8863L70.9985 56.896H74.1476L68.5915 62.8438L74.9188 71.3588H71.7414L66.7798 64.4273L65.4421 65.921V71.3588H62.8558V50.144H65.4421" fill="#165781"/>
<path fill-rule="evenodd" clip-rule="evenodd" d="M96.4623 57.4087C96.3649 57.2925 96.2682 57.1745 96.165 57.0686C95.9967 56.8917 95.8083 56.7267 95.6076 56.5705C94.5262 55.6811 93.2183 55.1578 91.8088 55.1578C90.2879 55.1578 88.8873 55.7721 87.7594 56.7945C87.7265 56.8152 87.698 56.8386 87.6651 56.8562C87.6248 56.8783 87.5676 56.9064 87.501 56.8886C87.3157 56.8402 87.1179 56.6412 87.1166 56.3571V50.4433C87.1166 50.0719 86.8134 49.7715 86.4421 49.7715H83.5804C83.207 49.7715 82.9062 50.0719 82.9062 50.4433V50.6477C82.9062 50.6569 82.9039 50.6627 82.9039 50.6698V51.3566L82.9091 70.4223C82.9091 70.8007 83.2138 71.1072 83.5885 71.1072H86.1792C86.3441 71.1072 86.4941 71.0454 86.6114 70.9453C86.6164 70.9421 86.6216 70.9421 86.624 70.9395C86.6282 70.9363 86.629 70.9319 86.6318 70.9287C86.6875 70.8804 86.7309 70.8215 86.7672 70.7582H86.7688C86.8134 70.6743 86.8432 70.5857 86.8532 70.4872C86.9049 70.0659 87.19 69.8333 87.3669 69.8935C87.4278 69.9126 87.4856 69.9421 87.5449 69.9849C87.6055 70.023 87.6651 70.0627 87.7236 70.1011C87.8992 70.2307 88.6712 70.7626 89.2696 71.0304C89.5711 71.1647 90.532 71.493 91.647 71.493C92.7631 71.493 93.556 71.2444 93.7428 71.1939C93.9307 71.144 94.1152 71.0809 94.2926 70.9981C95.1662 70.6212 95.8686 70.1011 96.4022 69.4443C96.9301 68.799 97.3681 68.0347 97.7216 67.1566C98.249 66.0018 98.549 64.6761 98.549 63.2652C98.549 60.96 97.7467 58.8847 96.4623 57.4087ZM90.5545 68.4484C88.4574 68.4484 86.757 66.1758 86.757 63.3756C86.757 60.5742 88.4574 58.3028 90.5545 58.3028C92.6495 58.3028 94.3483 60.5742 94.3483 63.3756C94.3483 66.1758 92.6495 68.4484 90.5545 68.4484Z" fill="#165781"/>
<path fill-rule="evenodd" clip-rule="evenodd" d="M103.813 49.9438C103.403 49.9496 103.041 50.0427 102.731 50.2251C102.427 50.4122 102.191 50.6627 102.023 50.9689C101.849 51.2814 101.762 51.6246 101.762 52.006C101.762 52.3742 101.849 52.7072 102.011 53.0137C102.172 53.3185 102.402 53.563 102.694 53.7498C102.992 53.9312 103.34 54.0253 103.739 54.0313C104.186 54.0253 104.565 53.9312 104.876 53.7498C105.186 53.563 105.422 53.3185 105.584 53.0137C105.746 52.7072 105.826 52.3742 105.826 52.006C105.826 51.6246 105.74 51.2814 105.577 50.9689C105.416 50.6627 105.18 50.4122 104.881 50.2251C104.584 50.0427 104.223 49.9496 103.813 49.9438Z" fill="#165781"/>
<path fill-rule="evenodd" clip-rule="evenodd" d="M105.998 56.8548C105.994 56.8167 105.991 56.7784 105.988 56.7416V56.2362C105.988 55.8564 105.683 55.5483 105.306 55.5483H102.423C102.044 55.5483 101.738 55.8564 101.738 56.2362V71.8614C101.723 72.2591 101.242 72.8042 100.686 72.9395C100.429 73.0192 100.173 73.056 99.9141 73.0441C99.6562 73.0355 99.4793 73.1398 99.3787 73.3593C99.3397 73.4565 99.3113 73.5877 99.2885 73.748C99.2713 73.9073 99.2932 75.582 99.3055 75.7205C99.316 75.8606 99.3397 75.9783 99.3787 76.0785C99.4981 76.258 99.7069 76.3773 100.003 76.4378C100.102 76.479 102.017 76.4835 103.304 76.1697C103.81 76.0475 104.216 75.8015 104.555 75.5436C104.889 75.2829 105.188 74.9546 105.447 74.5541C105.745 74.0765 105.907 73.4741 105.938 72.7466C105.947 72.5272 105.988 71.9542 105.988 71.8864V57.6901C105.991 57.6136 105.993 57.5371 105.998 57.4544C106.007 57.2554 106.007 57.0554 105.998 56.8548Z" fill="#165781"/>
<mask id="mask1_4275_2015" style="mask-type:luminance" maskUnits="userSpaceOnUse" x="109" y="49" width="17" height="23">
<path fill-rule="evenodd" clip-rule="evenodd" d="M125.018 71.493V49.7715L109.374 49.7715V71.493H125.018Z" fill="white"/>
</mask>
<g mask="url(#mask1_4275_2015)">
<path fill-rule="evenodd" clip-rule="evenodd" d="M122.931 57.4087C122.836 57.2925 122.739 57.1745 122.634 57.0686C122.466 56.8917 122.277 56.7267 122.078 56.5705C120.996 55.6811 119.688 55.1578 118.278 55.1578C116.758 55.1578 115.358 55.7721 114.231 56.7945C114.196 56.8152 114.168 56.8386 114.134 56.8562C114.094 56.8783 114.039 56.9064 113.972 56.8886C113.787 56.8402 113.588 56.6412 113.585 56.3571V50.4433C113.585 50.0719 113.283 49.7715 112.912 49.7715H110.051C109.678 49.7715 109.376 50.0719 109.376 50.4433V50.6477C109.376 50.6569 109.374 50.6627 109.374 50.6698V51.3566L109.378 70.4223C109.378 70.8007 109.683 71.1072 110.059 71.1072H112.647C112.814 71.1072 112.965 71.0454 113.083 70.9453C113.086 70.9421 113.089 70.9421 113.093 70.9395C113.097 70.9363 113.099 70.9319 113.103 70.9287C113.155 70.8804 113.202 70.8215 113.238 70.7582L113.239 70.755C113.283 70.6743 113.313 70.5857 113.323 70.4872C113.375 70.0659 113.658 69.8333 113.836 69.8935C113.897 69.9126 113.957 69.9421 114.016 69.9849C114.074 70.023 114.134 70.0627 114.194 70.1011C114.369 70.2307 115.142 70.7626 115.739 71.0304C116.041 71.1647 117 71.493 118.118 71.493C119.232 71.493 120.024 71.2444 120.213 71.1939C120.401 71.144 120.585 71.0809 120.763 70.9981C121.633 70.6212 122.338 70.1011 122.873 69.4443C123.401 68.799 123.838 68.0347 124.192 67.1566C124.718 66.0018 125.018 64.6761 125.018 63.2652C125.018 60.96 124.215 58.8847 122.931 57.4087ZM117.024 68.4484C114.927 68.4484 113.228 66.1758 113.228 63.3756C113.228 60.5742 114.927 58.3028 117.024 58.3028C119.12 58.3028 120.819 60.5742 120.819 63.3756C120.819 66.1758 119.12 68.4484 117.024 68.4484Z" fill="#165781"/>
</g>
<defs>
<linearGradient id="paint0_linear_4275_2015" x1="48.2357" y1="32.8349" x2="88.5799" y2="30.5809" gradientUnits="userSpaceOnUse">
<stop stop-color="#2BA7DF"/>
<stop offset="0.40625" stop-color="#175882"/>
<stop offset="1" stop-color="#EBC71B"/>
</linearGradient>
</defs>
</svg>
