<svg width="140" height="101" viewBox="0 0 140 101" fill="none" xmlns="http://www.w3.org/2000/svg">
<g clip-path="url(#clip0_4012_2760)">
<rect x="0.5" y="0.678711" width="139" height="99" rx="3.5" fill="white" stroke="#D6D6D6"/>
<path fill-rule="evenodd" clip-rule="evenodd" d="M66.0709 17.5125H73.977V16.1792H66.0709V17.5125Z" fill="#00AB4E"/>
<path fill-rule="evenodd" clip-rule="evenodd" d="M64.6067 38.2549V40.7434H53.0098V41.4341H87.6618V40.7434H75.4357V38.2549H64.6067Z" fill="#00AB4E"/>
<path fill-rule="evenodd" clip-rule="evenodd" d="M54.9954 44.8201V45.4761H85.5039V44.8201H75.4362V42.4355H64.6066V44.8201H54.9954Z" fill="#00AB4E"/>
<path fill-rule="evenodd" clip-rule="evenodd" d="M64.6067 46.4785V48.8284H58.8256V49.486H82.088V48.8284H75.4357V46.4785H64.6067Z" fill="#00AB4E"/>
<path fill-rule="evenodd" clip-rule="evenodd" d="M66.0709 53.6517H73.9759V52.3184H66.0709V53.6517Z" fill="#00AB4E"/>
<path fill-rule="evenodd" clip-rule="evenodd" d="M58.8259 20.0489H64.8262C66.5268 19.3353 68.3635 18.9097 70.284 18.9097C72.2491 18.9097 74.132 19.3145 75.8686 20.0489H82.0883V20.7395H58.8259V20.0489Z" fill="#00AB4E"/>
<path fill-rule="evenodd" clip-rule="evenodd" d="M54.9954 24.0555H59.1602C59.933 23.1921 60.7857 22.4139 61.7076 21.7451L78.8761 21.7473C79.8333 22.4433 80.7149 23.1649 81.5105 24.0555H85.5039V24.7451H54.9954V24.0555Z" fill="#00AB4E"/>
<path fill-rule="evenodd" clip-rule="evenodd" d="M53.0097 28.4441H56.2983C56.738 27.4873 57.2594 26.5881 57.8428 25.7417L82.777 25.7678C83.3495 26.6046 83.8545 27.5001 84.286 28.4441H87.6617V29.1012H53.0097V28.4441Z" fill="#00AB4E"/>
<path fill-rule="evenodd" clip-rule="evenodd" d="M52 32.3818H55.0018C55.1721 31.561 55.3958 30.7621 55.6679 29.9888L84.9459 29.9952C85.2109 30.7568 85.4145 31.5696 85.5794 32.3818H88.5665V33.0746H52V32.3818Z" fill="#00AB4E"/>
<path fill-rule="evenodd" clip-rule="evenodd" d="M52 36.461H54.5899V36.3661C54.5899 35.5906 54.6345 34.8274 54.721 34.0786L85.8596 34.0871C85.9434 34.8338 85.9788 35.5933 85.9788 36.3661V36.461H88.5665V37.1858H52V36.461Z" fill="#00AB4E"/>
<path fill-rule="evenodd" clip-rule="evenodd" d="M65.9892 68.4457C66.0544 68.4555 66.1182 68.4639 66.1799 68.4688C66.2426 68.4762 66.319 68.4783 66.4082 68.4783C66.7373 68.4783 66.9982 68.3589 67.1893 68.1209C67.3807 67.8826 67.4768 67.5536 67.4768 67.1311C67.4768 66.7626 67.3793 66.4612 67.1843 66.2218C66.9918 65.9835 66.7419 65.8645 66.4383 65.8645C66.3989 65.8645 66.3405 65.869 66.2656 65.8767C66.1906 65.8858 66.0999 65.9002 65.9892 65.9208V68.4457ZM65.9892 73.7552C66.1197 73.7769 66.2351 73.7934 66.3405 73.8046C66.4455 73.8147 66.5333 73.8214 66.6032 73.8214C67.0552 73.8214 67.4273 73.6471 67.7166 73.3055C68.0062 72.9614 68.1514 72.5173 68.1514 71.9769C68.1514 71.3857 68.0098 70.9136 67.7241 70.558C67.4395 70.2027 67.061 70.0263 66.5875 70.0263C66.5226 70.0263 66.3824 70.0421 66.1695 70.0736C66.0899 70.0851 66.0297 70.0939 65.9892 70.0991V73.7552ZM62.4512 75.4513C62.6705 75.2298 62.824 74.9876 62.9132 74.7237C63.0025 74.4619 63.0473 74.0394 63.0473 73.4556V66.149C63.0473 65.5638 63.0025 65.1438 62.9132 64.8848C62.824 64.6283 62.6705 64.3889 62.4512 64.167H66.3104C67.5764 64.167 68.5461 64.3983 69.2225 64.8561C69.8975 65.3174 70.233 65.9744 70.233 66.8305C70.233 67.3229 70.1014 67.7611 69.8355 68.143C69.5691 68.5245 69.1813 68.8374 68.6723 69.0813C69.3727 69.3036 69.9011 69.6627 70.2624 70.1628C70.6216 70.6605 70.8008 71.2807 70.8008 72.0224C70.8008 72.4613 70.7316 72.8792 70.5922 73.2775C70.4524 73.6765 70.2481 74.0352 69.9781 74.3555C69.6347 74.7506 69.2361 75.0313 68.7884 75.1983C68.3378 75.368 67.7166 75.4513 66.924 75.4513H62.4512Z" fill="#0089CF"/>
<path fill-rule="evenodd" clip-rule="evenodd" d="M75.0442 71.5789C75.0442 72.308 75.1743 72.8645 75.4388 73.2474C75.7044 73.6299 76.0884 73.8214 76.5909 73.8214C77.1308 73.8214 77.5351 73.6338 77.8079 73.2558C78.0785 72.8792 78.214 72.3188 78.214 71.5789V66.1494C78.214 65.6674 78.1735 65.2786 78.0893 64.98C78.0093 64.6825 77.8466 64.4109 77.6021 64.167H81.7219C81.5094 64.3836 81.3563 64.616 81.2634 64.867C81.172 65.1148 81.1254 65.5421 81.1254 66.1494V73.4556C81.1254 74.0387 81.172 74.4615 81.2634 74.723C81.3563 74.9886 81.5094 75.2298 81.7219 75.4503H78.2739V74.2592C77.8548 74.7709 77.4043 75.1496 76.9211 75.3894C76.4371 75.6302 75.888 75.7513 75.2754 75.7513C74.7524 75.7513 74.2871 75.6582 73.8827 75.4744C73.4795 75.2921 73.1296 75.0177 72.836 74.6547C72.5808 74.3299 72.4001 73.9547 72.2926 73.526C72.1847 73.0997 72.1317 72.4826 72.1317 71.6748V66.1494C72.1317 65.5421 72.0876 65.1148 71.9969 64.867C71.9083 64.616 71.7549 64.3836 71.5334 64.167H75.6388C75.4223 64.3899 75.2668 64.6286 75.1782 64.8869C75.0868 65.1435 75.0442 65.5649 75.0442 66.1494V71.5789Z" fill="#0089CF"/>
<path fill-rule="evenodd" clip-rule="evenodd" d="M86.3245 73.4524C86.3245 74.0387 86.3693 74.4618 86.4614 74.7226C86.5543 74.9882 86.7066 75.2297 86.9206 75.4506H82.8137C83.0324 75.2297 83.188 74.9882 83.2779 74.7226C83.3672 74.4618 83.412 74.0387 83.412 73.4524V66.149C83.412 65.5421 83.3672 65.1147 83.2779 64.8669C83.188 64.6167 83.0324 64.3839 82.8137 64.168H86.9206C86.702 64.3895 86.5464 64.6282 86.4571 64.8869C86.3686 65.1434 86.3245 65.5645 86.3245 66.149V69.3424L88.5878 66.149C88.7588 65.9166 88.871 65.7286 88.9312 65.5844C88.9911 65.4409 89.0205 65.303 89.0205 65.1665C89.0205 65.0419 88.9832 64.911 88.9054 64.7721C88.8283 64.6349 88.6674 64.4326 88.4222 64.168H92.0982L88.6606 68.8961L92.699 75.4506H91.1325C90.3195 75.4506 89.7449 75.3582 89.4116 75.1709C89.076 74.9844 88.6911 74.5231 88.2491 73.7856L86.3245 70.5607V73.4524Z" fill="#0089CF"/>
<path fill-rule="evenodd" clip-rule="evenodd" d="M99.2739 75.718C97.5576 75.718 96.1503 75.1619 95.0519 74.0517C93.9529 72.9415 93.4052 71.5205 93.4052 69.7922C93.4052 69.0026 93.5665 68.2315 93.8887 67.4811C94.2099 66.7304 94.6651 66.0678 95.2534 65.4931C95.7932 64.9779 96.4066 64.5845 97.0955 64.3108C97.7848 64.0378 98.5104 63.8999 99.2739 63.8999C101.004 63.8999 102.419 64.4508 103.513 65.5505C104.61 66.6513 105.157 68.0695 105.157 69.8093C105.157 70.6007 104.993 71.3766 104.665 72.1372C104.338 72.8991 103.887 73.5578 103.307 74.1161C102.774 74.6365 102.162 75.0327 101.476 75.3075C100.786 75.5808 100.052 75.718 99.2739 75.718ZM96.5001 69.4292C96.5001 70.8268 96.7636 71.9503 97.2891 72.798C97.8135 73.6471 98.5043 74.0688 99.3624 74.0688C100.194 74.0688 100.853 73.7388 101.336 73.0762C101.821 72.4105 102.063 71.4939 102.063 70.3238C102.063 68.9249 101.797 67.8045 101.269 66.9624C100.741 66.1186 100.046 65.6982 99.1839 65.6982C98.362 65.6982 97.7078 66.0314 97.2256 66.6982C96.7417 67.3649 96.5001 68.2746 96.5001 69.4292Z" fill="#0089CF"/>
<path fill-rule="evenodd" clip-rule="evenodd" d="M110.443 64.167C111.471 64.167 112.284 64.4403 112.883 64.9874C113.481 65.5341 113.779 66.2708 113.779 67.1966C113.779 68.2357 113.46 69.0526 112.823 69.648C112.185 70.244 111.31 70.5422 110.198 70.5422C110.074 70.5422 109.873 70.5314 109.591 70.51H109.555C110.037 70.2283 110.398 69.8751 110.629 69.4527C110.859 69.0274 110.976 68.5045 110.976 67.8822C110.976 67.2722 110.834 66.7885 110.545 66.4276C110.258 66.0699 109.866 65.8869 109.367 65.8806V73.4514C109.367 74.0363 109.413 74.4608 109.507 74.723C109.597 74.9862 109.75 75.2294 109.965 75.451H105.86C106.076 75.2294 106.232 74.9862 106.322 74.723C106.412 74.4608 106.456 74.0363 106.456 73.4514V66.1571C106.456 65.5705 106.412 65.1473 106.322 64.8883C106.232 64.6297 106.076 64.3903 105.86 64.167H110.443Z" fill="#0089CF"/>
<path fill-rule="evenodd" clip-rule="evenodd" d="M117.965 73.4524C117.965 74.0387 118.01 74.4618 118.102 74.7226C118.194 74.9882 118.347 75.2297 118.563 75.4506H114.457C114.675 75.2297 114.83 74.9882 114.919 74.7226C115.008 74.4618 115.053 74.0387 115.053 73.4524V66.149C115.053 65.5421 115.008 65.1147 114.919 64.8669C114.83 64.6167 114.675 64.3839 114.457 64.168H118.563C118.343 64.3895 118.19 64.6282 118.1 64.8869C118.01 65.1434 117.965 65.5645 117.965 66.149V73.4524Z" fill="#0089CF"/>
<path fill-rule="evenodd" clip-rule="evenodd" d="M119.695 75.4503C119.959 75.1416 120.147 74.8108 120.253 74.4577C120.362 74.1014 120.416 73.4896 120.416 72.6244V66.5634C120.416 65.9677 120.353 65.5089 120.224 65.182C120.098 64.8572 119.885 64.5191 119.59 64.167H122.793L127.511 71.0728V66.6198C127.511 66.0724 127.453 65.6205 127.336 65.2586C127.223 64.8992 127.036 64.5348 126.775 64.167H129.748C129.533 64.5523 129.377 64.93 129.282 65.3003C129.184 65.6716 129.134 66.1287 129.134 66.6691V67.1322V75.7341C127.684 75.55 126.393 74.6624 125.273 73.0713C125.232 73.0104 125.204 72.9688 125.183 72.9415L122.041 68.4975V73.2901C122.041 73.8637 122.093 74.3005 122.198 74.6012C122.302 74.9036 122.48 75.1857 122.729 75.4503H119.695Z" fill="#0089CF"/>
<path fill-rule="evenodd" clip-rule="evenodd" d="M17.0932 68.4457C17.1588 68.4555 17.2219 68.4639 17.2843 68.4688C17.3463 68.4762 17.4223 68.4783 17.513 68.4783C17.8403 68.4783 18.1009 68.3589 18.2908 68.1209C18.4837 67.8826 18.579 67.5536 18.579 67.1311C18.579 66.7626 18.4815 66.4612 18.2887 66.2218C18.0951 65.9835 17.8446 65.8645 17.5417 65.8645C17.5015 65.8645 17.4442 65.869 17.3692 65.8767C17.2943 65.8858 17.2036 65.9002 17.0932 65.9208V68.4457ZM17.0932 73.7552C17.2233 73.7769 17.3391 73.7934 17.4442 73.8046C17.5499 73.8147 17.6374 73.8214 17.7051 73.8214C18.1611 73.8214 18.5314 73.6471 18.8196 73.3055C19.1092 72.9614 19.2537 72.5173 19.2537 71.9769C19.2537 71.3857 19.1128 70.9136 18.8278 70.558C18.5436 70.2027 18.1654 70.0263 17.6915 70.0263C17.627 70.0263 17.4879 70.0421 17.2732 70.0736C17.1936 70.0851 17.1341 70.0939 17.0932 70.0991V73.7552ZM13.5538 75.4513C13.7728 75.2298 13.9266 74.9876 14.0166 74.7237C14.1065 74.4619 14.151 74.0394 14.151 73.4556V66.149C14.151 65.5638 14.1065 65.1438 14.0166 64.8848C13.9266 64.6283 13.7728 64.3889 13.5538 64.167H17.414C18.6798 64.167 19.649 64.3983 20.3251 64.8561C21.0004 65.3174 21.3381 65.9744 21.3381 66.8305C21.3381 67.3229 21.2044 67.7611 20.9384 68.143C20.6703 68.5245 20.2842 68.8374 19.7767 69.0813C20.4771 69.3036 21.0058 69.6627 21.3646 70.1628C21.7249 70.6605 21.9048 71.2807 21.9048 72.0224C21.9048 72.4613 21.8342 72.8792 21.6951 73.2775C21.5561 73.6765 21.351 74.0352 21.0818 74.3555C20.7366 74.7506 20.3394 75.0313 19.8903 75.1983C19.4419 75.368 18.8196 75.4513 18.027 75.4513H13.5538Z" fill="#0089CF"/>
<path fill-rule="evenodd" clip-rule="evenodd" d="M26.3385 70.5247H28.4731L27.4085 67.0496L26.3385 70.5247ZM22.6452 75.451C22.8804 75.1524 23.0704 74.8686 23.2216 74.5994C23.3704 74.3285 23.4905 74.0517 23.5805 73.772L26.0169 66.198C26.0323 66.1487 26.0546 66.0808 26.0843 65.9936C26.1933 65.686 26.2478 65.4399 26.2478 65.2555C26.2478 65.0871 26.213 64.9237 26.1402 64.7676C26.0685 64.6118 25.9352 64.4102 25.7402 64.167H29.4162L32.3642 73.4206C32.4943 73.8287 32.6578 74.2036 32.8556 74.5494C33.051 74.8952 33.2693 75.1969 33.5098 75.451H29.0054C29.2345 75.1692 29.3836 74.9498 29.4538 74.7933C29.5234 74.6372 29.5582 74.4682 29.5582 74.2904C29.5582 74.1822 29.5513 74.0783 29.5406 73.9827C29.527 73.8847 29.5083 73.8014 29.4825 73.7297L28.9602 72.1067H25.8294L25.3434 73.6565C25.2842 73.8574 25.2441 74.003 25.2276 74.0954C25.2107 74.1875 25.2025 74.2683 25.2025 74.339C25.2025 74.5336 25.2426 74.7237 25.3251 74.9074C25.4068 75.0912 25.5316 75.2732 25.6947 75.451H22.6452Z" fill="#0089CF"/>
<path fill-rule="evenodd" clip-rule="evenodd" d="M34.4584 75.4503C34.7237 75.1416 34.9097 74.8108 35.0173 74.4577C35.1262 74.1014 35.1804 73.4896 35.1804 72.6244V66.5634C35.1804 65.9677 35.1155 65.5089 34.9882 65.182C34.8606 64.8572 34.6481 64.5191 34.3523 64.167H37.5577L42.274 71.0728V66.6198C42.274 66.0724 42.2166 65.6205 42.1015 65.2586C41.9857 64.8992 41.7983 64.5348 41.5377 64.167H44.5104C44.2967 64.5523 44.1412 64.93 44.0437 65.3003C43.9455 65.6716 43.8992 66.1287 43.8992 66.6691V67.1322V75.7341C42.4449 75.55 41.1595 74.6624 40.0364 73.0713C39.9952 73.0104 39.9655 72.9688 39.9465 72.9415L36.8035 68.4975V73.2901C36.8035 73.8637 36.8569 74.3005 36.9605 74.6012C37.0662 74.9036 37.2447 75.1857 37.495 75.4503H34.4584Z" fill="#0089CF"/>
<path fill-rule="evenodd" clip-rule="evenodd" d="M49.3421 73.4524C49.3421 74.0387 49.389 74.4618 49.4804 74.7226C49.5719 74.9882 49.726 75.2297 49.9393 75.4506H45.8335C46.0536 75.2297 46.207 74.9882 46.297 74.7226C46.3862 74.4618 46.4307 74.0387 46.4307 73.4524V66.149C46.4307 65.5421 46.3862 65.1147 46.297 64.8669C46.207 64.6167 46.0536 64.3839 45.8335 64.168H49.9393C49.721 64.3895 49.5665 64.6282 49.4765 64.8869C49.3865 65.1434 49.3421 65.5645 49.3421 66.149V69.3424L51.6054 66.149C51.776 65.9166 51.8911 65.7286 51.951 65.5844C52.0112 65.4409 52.0409 65.303 52.0409 65.1665C52.0409 65.0419 52.0015 64.911 51.9244 64.7721C51.8466 64.6349 51.6861 64.4326 51.4416 64.168H55.119L51.6818 68.8961L55.7166 75.4506H54.1526C53.3393 75.4506 52.765 75.3582 52.4317 75.1709C52.0965 74.9844 51.7094 74.5231 51.2695 73.7856L49.3421 70.5607V73.4524Z" fill="#0089CF"/>
</g>
<rect x="0.5" y="0.678711" width="139" height="99" rx="11.5" stroke="#D6D6D6"/>
<defs>
<clipPath id="clip0_4012_2760">
<rect y="0.178711" width="140" height="100" rx="12" fill="white"/>
</clipPath>
</defs>
</svg>
