<svg width="140" height="101" viewBox="0 0 140 101" fill="none" xmlns="http://www.w3.org/2000/svg">
<rect y="0.178711" width="140" height="100" rx="4" fill="#EE3124"/>
<path fill-rule="evenodd" clip-rule="evenodd" d="M12 65.7724H43.9776V34.1787H12V65.7724Z" fill="white"/>
<path fill-rule="evenodd" clip-rule="evenodd" d="M33.3142 40.1489H16.3209L23.8459 49.9744H40.8406L33.3142 40.1489Z" fill="#ED3124"/>
<path fill-rule="evenodd" clip-rule="evenodd" d="M40.8404 49.9746H23.8456L16.3207 59.7994H33.3139L40.8404 49.9746Z" fill="#820024"/>
<path fill-rule="evenodd" clip-rule="evenodd" d="M120.957 56.574H116.813V51.704H120.957C122.89 51.704 123.581 52.9558 123.581 54.1264C123.581 55.3104 122.89 56.574 120.957 56.574ZM116.813 43.3744H120.693C122.321 43.3744 123.291 44.2227 123.291 45.6531C123.291 47.0789 122.321 47.9266 120.693 47.9266H116.813V43.3744ZM125.065 49.7126C125.994 49.2088 127.519 47.7896 127.519 45.4782C127.519 41.8681 125.026 39.6214 121.013 39.6214H112.583V60.3232H121.368C125.34 60.3232 127.81 58.0296 127.81 54.3288C127.81 51.5485 126.159 50.2588 125.065 49.7126ZM96.1218 52.8479C95.9628 52.5792 88.7211 39.5805 88.7211 39.5805H84.5835V60.2838H88.8115V47.9161C89.1331 48.4579 96.1218 60.4512 96.1218 60.4512C96.1218 60.4512 103.078 48.4594 103.388 47.9191V60.2838H107.621V39.5805H103.486C103.486 39.5805 96.2694 52.5792 96.1218 52.8479ZM75.1634 60.3232H79.4065V39.6214H75.1634V60.3232ZM68.1575 55.3364C66.9237 56.3098 65.43 56.8218 63.8557 56.8218C60.033 56.8218 57.0599 53.8153 57.0599 49.9746C57.0599 46.1331 60.033 43.1243 63.8557 43.1243C65.43 43.1243 66.9237 43.6371 68.1575 44.612L68.2162 44.6581L71.1644 41.7468L71.0974 41.6851C69.0802 39.963 66.5131 39.0127 63.8557 39.0127C57.6708 39.0127 52.6391 43.931 52.6391 49.9746C52.6391 56.0166 57.6708 60.9334 63.8557 60.9334C66.5131 60.9334 69.0802 59.9853 71.0974 58.2633L71.1644 58.1986L68.2162 55.2903L68.1575 55.3364Z" fill="white"/>
</svg>
