<svg width="140" height="101" viewBox="0 0 140 101" fill="none" xmlns="http://www.w3.org/2000/svg">
<rect y="0.178711" width="140" height="100" rx="4" fill="url(#paint0_linear_4275_869)"/>
<path fill-rule="evenodd" clip-rule="evenodd" d="M61.6953 74.6191H68.1872V43.3091H61.6953V74.6191Z" fill="white"/>
<path fill-rule="evenodd" clip-rule="evenodd" d="M74.1395 43.3604V49.2312H79.6051V66.8944C79.6051 69.3318 80.2834 71.2887 81.5889 72.7647C82.894 74.2928 84.6348 75.0482 86.8276 75.0994C89.0038 75.151 90.9357 74.67 92.5714 73.6746L92.6761 73.623V73.5201L94.2251 67.5637L93.8425 67.8042C92.1017 68.8513 90.5004 69.3662 89.0387 69.3662C87.0195 69.3662 85.9923 68.1819 85.9923 65.8473V49.2312H92.6238V43.3604H85.9923V33.5762L79.6051 36.9579V43.3604H74.1395Z" fill="white"/>
<path fill-rule="evenodd" clip-rule="evenodd" d="M99.0115 74.6191H105.556V43.3091H99.0115V74.6191Z" fill="white"/>
<path fill-rule="evenodd" clip-rule="evenodd" d="M57.9701 48.2354L57.831 48.1326C54.8374 44.5448 51.0952 42.7939 46.6046 42.7939C41.905 42.7939 38.0412 44.2187 34.9429 47.0339C31.6535 50.0035 29.9999 54.003 29.9999 59.0155C29.9999 64.0277 31.6535 67.9932 34.9429 70.9968C37.9888 73.8119 41.905 75.2027 46.6046 75.2027C51.0952 75.2027 54.8718 73.4346 57.831 69.8985L57.9701 69.7952L54.2978 65.4181L54.1582 65.5557C51.774 67.8899 49.2152 69.0914 46.4654 69.0914C43.5935 69.0914 41.2263 68.13 39.3467 66.2251C37.4493 64.3538 36.5442 61.9339 36.5442 59.0155C36.5442 56.0971 37.4493 53.6597 39.3467 51.7548C41.2263 49.9007 43.5935 48.9392 46.4654 48.9392C49.2152 48.9392 51.774 50.1411 54.1582 52.4758L54.2978 52.613L57.9701 48.2354Z" fill="white"/>
<path fill-rule="evenodd" clip-rule="evenodd" d="M64.8975 38.1595C67.4558 35.5848 70.3107 33.6279 73.5651 32.2375C76.6979 30.8983 80.04 30.2462 83.4864 30.2462C86.9149 30.2462 90.2571 30.8983 93.4592 32.2375C96.6443 33.6279 99.4988 35.5848 102.057 38.1595L102.162 38.2455H109.611L109.333 37.8162C106.374 33.7135 102.545 30.4694 97.9498 28.1004C93.3549 25.749 88.5686 24.5986 83.4864 24.5986C78.4562 24.5986 73.6 25.749 69.0051 28.1004C64.4098 30.4694 60.5809 33.7135 57.6392 37.8162L57.3434 38.2455H64.8451L64.8975 38.1595Z" fill="#EC1C2D"/>
<defs>
<linearGradient id="paint0_linear_4275_869" x1="0" y1="0.178711" x2="0" y2="100.179" gradientUnits="userSpaceOnUse">
<stop stop-color="#2E68C4"/>
<stop offset="1" stop-color="#1E3B80"/>
</linearGradient>
</defs>
</svg>
