<svg width="140" height="101" viewBox="0 0 140 101" fill="none" xmlns="http://www.w3.org/2000/svg">
<rect x="0.5" y="0.678711" width="139" height="99" rx="3.5" fill="white" stroke="#D6D6D6"/>
<path fill-rule="evenodd" clip-rule="evenodd" d="M16.0406 51.4384H17.9021C18.9727 51.4384 19.8316 51.5223 20.7789 52.6123C21.4432 53.3604 22.1811 55.0304 22.1811 57.7173C22.1811 58.6874 22.1958 59.6421 22.0137 60.6252C21.7127 62.1796 20.9952 64.6619 16.8825 64.6619C15.7857 64.6619 16.0406 64.6339 16.0406 64.6339V51.4384ZM18.1612 66.9533C23.6933 66.9533 26.1738 64.4961 26.1738 57.7863C26.1738 56.0108 25.6488 53.0389 23.9841 51.2218C22.267 49.3617 20.048 49.125 18.1658 49.125H12V66.9533H18.1612Z" fill="#004F38"/>
<path fill-rule="evenodd" clip-rule="evenodd" d="M35.6317 62.3373C35.6317 62.9269 35.6055 63.7201 34.9833 64.2853C34.4535 64.748 33.7145 64.7859 33.4221 64.7859C32.7232 64.7859 32.0985 64.5309 31.8281 63.6731C31.7602 63.3972 31.7305 63.1221 31.7305 62.8569C31.7305 61.554 32.5984 61.0057 33.5651 60.7753C34.0753 60.6604 34.4108 60.6334 35.6317 60.5335V62.3373ZM35.6317 58.9245L33.6139 59.1206C31.4341 59.3747 30.6104 59.5706 29.6754 60.1832C28.1759 61.1998 28.1565 62.6849 28.1565 63.1749C28.1565 64.3903 28.5245 65.3091 29.0304 65.839C29.6994 66.6093 30.7552 66.8943 31.7768 66.8943C34.2793 66.8943 35.4722 65.7632 35.4722 65.7632L35.4973 66.569H38.8615V58.1328C38.8615 57.1809 38.8887 55.8519 37.7921 54.9045C37.2231 54.4123 36.7193 54.1909 35.9486 54.0773C35.1746 53.9436 34.9016 53.8896 34.1561 53.8896C31.8822 53.8896 30.1621 54.2839 29.1799 56.0184C28.7578 56.7681 28.7881 57.5198 28.7881 58.0946H31.8822C31.9073 57.5934 31.9274 56.9007 32.328 56.418C32.5272 56.1433 32.9949 55.7531 33.858 55.7531C34.1389 55.7531 34.9609 55.7531 35.3782 56.4289C35.6055 56.8293 35.6317 57.3536 35.6317 57.9425V58.9245Z" fill="#004F38"/>
<path fill-rule="evenodd" clip-rule="evenodd" d="M62.4991 62.3373C62.4991 62.9269 62.4751 63.7201 61.8448 64.2853C61.3311 64.748 60.583 64.7859 60.2831 64.7859C59.5871 64.7859 58.9623 64.5309 58.6964 63.6731C58.6264 63.3972 58.6036 63.1221 58.6036 62.8569C58.6036 61.554 59.4638 61.0057 60.436 60.7753C60.9463 60.6604 61.2811 60.6334 62.4991 60.5335V62.3373ZM62.4991 58.9245L60.4835 59.1206C58.2957 59.3747 57.4832 59.5706 56.5428 60.1832C55.0502 61.1998 55.0239 62.6849 55.0239 63.1749C55.0239 64.3903 55.3919 65.3091 55.8942 65.839C56.5677 66.6093 57.6313 66.8943 58.648 66.8943C61.1522 66.8943 62.3427 65.7632 62.3427 65.7632L62.363 66.569H65.7293V58.1328C65.7293 57.1809 65.7517 55.8519 64.6641 54.9045C64.0926 54.4123 63.5809 54.1909 62.8159 54.0773C62.044 53.9436 61.7737 53.8896 61.0232 53.8896C58.7484 53.8896 57.0294 54.2839 56.0516 56.0184C55.6282 56.7681 55.6567 57.5198 55.6567 58.0946H58.7484C58.7769 57.5934 58.7983 56.9007 59.1967 56.418C59.389 56.1433 59.8576 55.7531 60.7303 55.7531C61.0076 55.7531 61.8301 55.7531 62.2533 56.4289C62.4751 56.8293 62.4991 57.3536 62.4991 57.9425V58.9245Z" fill="#004F38"/>
<path fill-rule="evenodd" clip-rule="evenodd" d="M113.337 66.5689H109.82V59.0196C109.82 58.5324 109.82 58.1334 109.771 57.7207C109.745 57.3266 109.623 56.0407 108.09 56.0407C107.683 56.0407 107.339 56.1432 107.117 56.2343C106.079 56.7112 106.054 57.5473 106.032 58.2159V66.5689H102.5V54.2116H106.032V55.6191C106.921 54.8295 107.719 53.9673 109.695 53.9673C111.359 53.9673 112.181 54.6055 112.521 54.9998C113.306 55.8734 113.306 57.0102 113.337 57.8972V66.5689Z" fill="#004F38"/>
<path fill-rule="evenodd" clip-rule="evenodd" d="M52.4401 66.5689H48.9192V59.0196C48.9192 58.5324 48.9192 58.1334 48.8626 57.7207C48.8425 57.3266 48.72 56.0407 47.1696 56.0407C46.7827 56.0407 46.4352 56.1432 46.2146 56.2343C45.1711 56.7112 45.1414 57.5473 45.119 58.2159V66.5689H41.5894V54.2116H45.119V55.6191C46.0177 54.8295 46.8076 53.9673 48.7891 53.9673C50.4561 53.9673 51.27 54.6055 51.6173 54.9998C52.4106 55.8734 52.4106 57.0102 52.4401 57.8972V66.5689Z" fill="#004F38"/>
<path fill-rule="evenodd" clip-rule="evenodd" d="M68.308 54.2051H71.8387V55.6444C72.5134 55.0384 73.7051 53.9531 75.8271 53.9531C78.2456 53.9531 78.9191 55.3932 79.0875 55.8605C80.5251 54.4784 81.4757 53.9531 82.8596 53.9531C83.532 53.9531 84.0006 54.0639 84.4487 54.2262C86.3411 54.948 86.3874 56.6309 86.4177 57.7181V66.5567H82.8382V58.5086C82.8158 57.6305 82.7909 57.1409 82.5563 56.7504C82.5169 56.6515 82.1637 56.0325 81.2751 56.0325C80.9753 56.0325 80.3994 56.1058 80.1267 56.2564C79.1455 56.728 79.1057 57.5359 79.0875 58.1986V66.5567H75.5894V58.5566C75.5894 57.6087 75.6067 56.0325 74.0061 56.0325C73.6519 56.0325 73.0249 56.1336 72.7151 56.3058C71.8387 56.8451 71.8139 57.6305 71.8387 58.7304V66.5567H68.308V54.2051Z" fill="#004F38"/>
<path fill-rule="evenodd" clip-rule="evenodd" d="M96.8296 60.12C96.8296 60.8277 96.8015 61.4949 96.7313 62.1788C96.6566 62.8568 96.5413 64.2272 95.4809 64.8042C95.1764 64.9486 94.8571 65.0248 94.528 65.0248C92.5279 65.0248 92.349 62.9406 92.3041 62.1788C92.2596 61.6096 92.226 61.0491 92.226 60.4967C92.226 60.0048 92.2596 59.3188 92.3335 58.5095C92.4047 57.8553 92.5465 56.6009 93.5659 56.0109C93.9155 55.8364 94.2507 55.7633 94.6378 55.7633C96.5413 55.7633 96.7098 57.741 96.7552 58.5095C96.8015 59.0494 96.8296 59.5949 96.8296 60.12ZM100.425 60.1832C100.425 59.0907 100.425 57.04 99.2053 55.6437C97.7207 53.8896 95.5997 53.8896 94.8571 53.8896C93.9855 53.8896 91.9849 53.9255 90.4177 55.3372C88.6429 56.9173 88.6429 59.4257 88.6429 60.6998C88.6429 63.1133 89.1896 65.6693 92.2596 66.5569C93.153 66.8322 93.6302 66.8766 94.528 66.8766C95.3733 66.8766 97.4739 66.8766 99.0368 65.1456C100.425 63.6207 100.425 61.3222 100.425 60.1832Z" fill="#004F38"/>
<path fill-rule="evenodd" clip-rule="evenodd" d="M12 24.1787V32.6591H30.3572V28.0407L12 24.1787Z" fill="#F15B22"/>
<path fill-rule="evenodd" clip-rule="evenodd" d="M52.315 32.6591L30.3527 24.1787L30.3572 28.0407L52.315 32.6591Z" fill="#FFC222"/>
<path fill-rule="evenodd" clip-rule="evenodd" d="M30.3526 32.659H52.3067L30.3526 28.0405V32.659Z" fill="#F7931D"/>
<path fill-rule="evenodd" clip-rule="evenodd" d="M52.3098 32.6514V32.6591L98.4264 42.3674V32.6514H52.3098Z" fill="#F15B22"/>
<path fill-rule="evenodd" clip-rule="evenodd" d="M127.998 48.5916V32.6509H98.4278V42.3706L127.998 48.5916Z" fill="#F7931D"/>
<path fill-rule="evenodd" clip-rule="evenodd" d="M98.4263 42.3709L52.3196 32.6621L98.4263 48.5994V42.3709Z" fill="#FFC222"/>
</svg>
