<svg width="140" height="101" viewBox="0 0 140 101" fill="none" xmlns="http://www.w3.org/2000/svg">
<rect y="0.178711" width="140" height="100" rx="4" fill="#FFC134"/>
<rect x="13.5588" y="39.832" width="17.2647" height="18" fill="white"/>
<path fill-rule="evenodd" clip-rule="evenodd" d="M33.7353 43.0103C32.5588 45.535 32.5 46.9608 32.5 48.5647C32.5 50.1687 32.5588 51.5944 33.7353 54.1192C33.776 54.2125 33.8236 54.3111 33.8737 54.4145C34.2214 55.1335 34.683 56.0879 33.7059 57.1786C32.7941 58.0994 31.7647 57.9211 31.0882 57.535C31.4706 58.2479 31.6176 59.2875 30.7353 60.1786C29.626 61.1655 28.659 60.6673 27.9408 60.2973C27.8592 60.2553 27.7809 60.2149 27.7059 60.1786C25.2059 58.9905 23.7941 58.931 22.2059 58.931C20.6176 58.931 19.2059 58.9905 16.7059 60.1786C16.6248 60.2179 16.5398 60.2622 16.451 60.3086C15.7349 60.6822 14.7755 61.1828 13.6765 60.1786C12.7941 59.2578 12.9412 58.2182 13.3235 57.535C12.6176 57.9211 11.5882 58.0994 10.7059 57.1786C9.70072 56.0566 10.1943 55.0788 10.5606 54.3532C10.6016 54.272 10.6409 54.1939 10.6765 54.1192C11.8529 51.5944 11.9118 50.1687 11.9118 48.5647C11.9118 46.9608 11.8529 45.535 10.6765 43.0103C10.6358 42.9169 10.5881 42.8183 10.5381 42.7149C10.1904 41.9959 9.72878 41.0415 10.7059 39.9509C11.6176 39.0598 12.6471 39.2083 13.3235 39.5944C12.9412 38.8815 12.7941 37.8419 13.6765 36.9508C14.7874 35.9357 15.7557 36.4342 16.4742 36.8041C16.5546 36.8455 16.6319 36.8853 16.7059 36.9211C19.2059 38.1093 20.6176 38.1687 22.2059 38.1687C23.7941 38.1687 25.2059 38.1093 27.7059 36.9211C27.7983 36.8801 27.8959 36.8319 27.9983 36.7814C28.7103 36.4302 29.6553 35.9641 30.7353 36.9508C31.6176 37.8716 31.4706 38.9112 31.0882 39.5944C31.7941 39.2083 32.7941 39.0301 33.7059 39.9509C34.711 41.0728 34.2175 42.0506 33.8512 42.7763C33.8102 42.8575 33.7708 42.9355 33.7353 43.0103ZM23.9412 51.238L29.7647 56.1687L24.8824 50.2578C24.8824 50.2578 24.1176 49.4558 24.1176 48.5647C24.1176 47.6736 24.8824 46.8716 24.8824 46.8716L29.7941 40.9607L29.7647 40.931L23.9412 45.8914C23.9412 45.8914 23.1471 46.6637 22.2647 46.6637C21.3824 46.6637 20.5882 45.8914 20.5882 45.8914L14.7353 40.931L14.7059 40.9607L19.6176 46.8716C19.6176 46.8716 20.3824 47.6736 20.3824 48.5647C20.3824 49.4558 19.6176 50.2578 19.6176 50.2578L14.7059 56.1687H14.7353L20.5882 51.238C20.5882 51.238 21.3824 50.4657 22.2647 50.4657C23.1471 50.4657 23.9412 51.238 23.9412 51.238Z" fill="url(#paint0_radial_4275_1060)"/>
<path d="M20.3824 48.5647C20.3824 47.6736 19.6176 46.8717 19.6176 46.8717L14.7941 41.0796L18.5294 47.6142C18.8824 48.2083 18.8824 48.9509 18.5294 49.5449L14.7059 56.1687L19.6176 50.2578C19.6176 50.2578 20.3824 49.4558 20.3824 48.5647Z" fill="url(#paint1_linear_4275_1060)"/>
<path d="M23.3824 45.3864C22.6765 45.9508 21.7353 46.0399 20.9412 45.624L18.8235 44.4062L20.5882 45.8914C20.5882 45.8914 21.3824 46.6636 22.2647 46.6636C23.1471 46.6636 23.9412 45.8914 23.9412 45.8914L29.7647 40.931L30.8235 39.8022L23.3824 45.3864Z" fill="url(#paint2_linear_4275_1060)"/>
<path d="M31.1176 57.5054L29.7941 56.1391L29.7647 56.1688L23.9412 51.2381C23.9412 51.2381 23.1471 50.4658 22.2647 50.4658C21.3824 50.4658 20.5882 51.2381 20.5882 51.2381L18.8235 52.7232L20.4412 51.8322C21.4412 51.2678 22.6765 51.3569 23.6176 52.0401L31.1176 57.5054Z" fill="url(#paint3_linear_4275_1060)"/>
<path d="M20.8235 57.238L19.5 56.1093C19.5 56.1093 19.3235 55.9311 19.1176 55.9311C18.9118 55.9311 18.7353 56.1093 18.7353 56.1093L17.4118 57.238L18.5294 55.9014C18.5294 55.9014 18.7059 55.7232 18.7059 55.5153C18.7059 55.3073 18.5294 55.1291 18.5294 55.1291L17.4118 53.7925L18.7353 54.9212C18.7353 54.9212 18.9118 55.0994 19.1176 55.0994C19.3235 55.0994 19.5 54.9212 19.5 54.9212L20.8235 53.7925L19.7059 55.1291C19.7059 55.1291 19.5294 55.3073 19.5294 55.5153C19.5294 55.7232 19.7059 55.9014 19.7059 55.9014L20.8235 57.238Z" fill="white"/>
<path d="M28.7647 42.1787L29.7941 43.0401L28.9118 42.0005L28.7647 42.1787Z" fill="white"/>
<path d="M28.5294 41.5546L27.8529 40.7527C27.8529 40.7527 27.5588 40.4259 27.5588 40.0992C27.5588 39.7428 27.8529 39.4457 27.8529 39.4457L29.7647 37.1289L27.4706 39.0596C27.4706 39.0596 27.1471 39.3566 26.8235 39.3566C26.4706 39.3566 26.1765 39.0596 26.1765 39.0596L24.9412 37.9606C24.8529 37.9903 24.7647 37.9903 24.6765 38.02L25.8235 39.3863C25.8235 39.3863 26.1176 39.7131 26.1176 40.0398C26.1176 40.3962 25.8235 40.6933 25.8235 40.6933L23.9118 43.0101L26.2059 41.0794C26.2059 41.0794 26.5294 40.7824 26.8529 40.7824C27.2059 40.7824 27.5 41.0794 27.5 41.0794L28.2647 41.7329" fill="white"/>
<path d="M28.2647 41.7626L28.5294 42.0002L28.7647 41.7923L28.5294 41.5547" fill="#EAEAEA"/>
<path fill-rule="evenodd" clip-rule="evenodd" d="M49.9412 54.2379H50H50.0294V56.1389H52.3824V36.2676H49.9118V44.4953H49.8529C49.0882 43.2478 47.7353 42.327 45.4118 42.327C41.5294 42.327 39.6471 45.5349 39.6471 49.1587C39.6471 52.8418 41.3529 56.4656 45.3824 56.4656C47.7647 56.4656 49.2941 55.2478 49.9412 54.2379ZM49.8824 49.426C49.8824 51.6834 48.7353 54.4755 45.9412 54.4755C43.2941 54.4755 42.1765 51.4755 42.2353 49.3666C42.1765 46.9012 43.2353 44.3468 45.9118 44.3468C48.5882 44.3468 49.8824 46.9012 49.8824 49.426Z" fill="#1D1D1B"/>
<path fill-rule="evenodd" clip-rule="evenodd" d="M54.8529 39.624H57.6471V36.8022H54.8529V39.624ZM57.5 42.624H55.0294V56.1389H57.5V42.624Z" fill="#1D1D1B"/>
<path fill-rule="evenodd" clip-rule="evenodd" d="M65.5 62.0499C70.3235 62.0499 72.4118 59.6737 72.4118 55.5747H72.3824V42.6539H70.0882V44.6737H70.0294C69.2941 43.1885 67.9706 42.3271 65.6176 42.3271C61.5882 42.3271 59.6471 46.04 59.6471 49.5153C59.6471 53.0202 61.5588 56.1687 65.3824 56.1687C67.0882 56.1687 68.8235 55.4559 69.8824 54.0598H69.9412V55.3965C69.9412 58.2479 68.3824 60.0301 65.7941 60.0301C64 60.0301 62.8529 59.6737 60.9706 58.8123L60.7059 61.1291C62.8529 61.8717 64.0882 62.0499 65.5 62.0499ZM66.0294 44.3172C68.6471 44.3172 69.9412 46.7232 69.9412 49.545C69.9412 52.0697 68.3235 54.1489 66.0294 54.1489C63.7059 54.1489 62.2941 51.9212 62.2941 49.3668C62.2941 47.0499 63.5294 44.3172 66.0294 44.3172Z" fill="#1D1D1B"/>
<path fill-rule="evenodd" clip-rule="evenodd" d="M74.5294 39.624H77.3235V36.8022H74.5294V39.624ZM77.1471 42.624H74.6765V56.1389H77.1471V42.624Z" fill="#1D1D1B"/>
<path fill-rule="evenodd" clip-rule="evenodd" d="M81.6765 36.2676H80.0294V56.1389H81.6765V54.0003H81.7353C82.6176 55.723 84 56.4656 85.9118 56.4656C89.5882 56.4656 91.4118 53.4062 91.4118 49.3963C91.4118 45.2973 89.8529 42.327 85.9118 42.327C83.2941 42.327 81.9706 44.2577 81.7353 44.9111H81.6765V36.2676ZM81.6765 49.3963C81.6765 46.9309 82.6176 43.7527 85.6471 43.7527C88.8235 43.7527 89.6176 46.7824 89.6176 49.3963C89.6176 52.0102 88.7941 55.0399 85.6471 55.0399C82.7059 55.0399 81.6765 51.8616 81.6765 49.3963Z" fill="#1D1D1B"/>
<path fill-rule="evenodd" clip-rule="evenodd" d="M101.5 53.9706H101.529V56.139H103.147C103.029 55.2182 103.029 54.4162 103.029 53.3172V47.3469C103.029 43.8122 101.618 42.2974 98.3235 42.2974C97.1471 42.2974 95.4118 42.7132 94.3824 43.2182V44.8221C95.6176 44.0498 96.9412 43.7231 98.3235 43.7231C100.559 43.7231 101.382 44.8815 101.382 47.1984V47.8815H101.059C97.5882 47.8815 92.8235 48.0894 92.8235 52.634C92.8235 53.8815 93.4412 56.4657 97.2353 56.4657C98.9118 56.4657 100.765 55.5746 101.5 53.9706ZM100.941 49.337H101.412H101.441V50.1687C101.441 51.6241 101.353 55.0399 97.4706 55.0399C95.9412 55.0399 94.6765 54.3865 94.6765 52.6043C94.6765 49.634 98.0882 49.337 100.941 49.337Z" fill="#1D1D1B"/>
<path d="M105.559 45.8321C105.559 44.7925 105.559 43.7232 105.441 42.6539H107.029V45.0598H107.088C107.647 43.842 108.647 42.3271 111.412 42.3271C114.706 42.3271 115.971 44.5549 115.971 47.5252V56.1687H114.324V47.941C114.324 45.3866 113.441 43.7529 111.147 43.7529C108.118 43.7529 107.176 46.4262 107.176 48.6836V56.1687H105.529V45.8321H105.559Z" fill="#1D1D1B"/>
<path d="M118.441 36.2676H120.088V48.1785L126.059 42.624H128.176L121.647 48.624L128.971 56.1389H126.676L120.059 49.1884V56.1389H118.412V36.2676H118.441Z" fill="#1D1D1B"/>
<path fill-rule="evenodd" clip-rule="evenodd" d="M106.794 57.8022H106V64.2181H106.765V63.5943H106.824C107.029 63.9211 107.529 64.3072 108.294 64.3072C109.588 64.3072 110.147 63.1191 110.147 61.931C110.147 60.7725 109.529 59.7329 108.265 59.7329C107.5 59.7329 107.059 60.03 106.824 60.4458H106.794V57.8022ZM106.794 62.0498C106.794 61.2478 107.235 60.4161 108.088 60.4161C108.941 60.4161 109.294 61.2478 109.265 62.0201C109.265 62.7032 108.912 63.6834 108.059 63.6834C107.176 63.6834 106.794 62.7923 106.794 62.0498Z" fill="#1D1D1B"/>
<path d="M110.559 65.4358C110.647 65.4655 110.794 65.4952 110.941 65.4952C111.647 65.4952 111.882 64.515 111.882 64.4259C111.882 64.3368 111.794 64.0992 111.735 63.9507L110.265 59.8813H111.147L112.324 63.5051H112.353L113.529 59.8813H114.324L112.735 64.3368C112.441 65.1685 112.118 66.1487 111.059 66.1487C110.794 66.1487 110.647 66.119 110.529 66.0893L110.559 65.4358Z" fill="#1D1D1B"/>
<path fill-rule="evenodd" clip-rule="evenodd" d="M118.059 58.2476H116.324V64.2179H118.059C120 64.2179 121.206 63.208 121.206 61.1882C121.206 59.3466 119.824 58.2476 118.059 58.2476ZM118.059 63.4753H117.176H117.147V58.9901H118.147C119.382 58.9901 120.324 59.8218 120.324 61.2179C120.324 62.7624 119.529 63.4753 118.059 63.4753Z" fill="#1D1D1B"/>
<path fill-rule="evenodd" clip-rule="evenodd" d="M121.941 58.2476H123.559C124.794 58.2476 125.647 58.6634 125.647 59.7624C125.647 60.5941 125.176 61.0099 124.412 61.1882V61.2179C125.206 61.2773 125.794 61.8119 125.794 62.6436C125.794 63.9208 124.735 64.2476 123.529 64.2476H121.941V58.2476ZM122.824 60.802H123.265C124.088 60.802 124.794 60.7129 124.794 59.8515C124.794 59.1386 124.206 58.9604 123.706 58.9604H122.824V60.802ZM123.441 63.5347H122.794V61.4852H123.353C124.088 61.4852 124.882 61.6337 124.882 62.5545C124.882 63.3862 124.206 63.5347 123.441 63.5347Z" fill="#1D1D1B"/>
<path d="M129.382 59.1687C128.941 58.9905 128.706 58.9311 128.265 58.9311C127.794 58.9311 127.235 59.1093 127.235 59.733C127.235 60.8914 129.794 60.6241 129.794 62.5845C129.794 63.8617 128.824 64.3667 127.618 64.3667C127.206 64.3667 126.794 64.2479 126.412 64.1291L126.5 63.3271C126.794 63.4459 127.294 63.6241 127.735 63.6241C128.206 63.6241 128.912 63.3568 128.912 62.6439C128.912 61.3073 126.353 61.6637 126.353 59.8221C126.353 58.7528 127.176 58.1885 128.265 58.1885C128.647 58.1885 129.118 58.2479 129.529 58.3964L129.382 59.1687Z" fill="#1D1D1B"/>
<defs>
<radialGradient id="paint0_radial_4275_1060" cx="0" cy="0" r="1" gradientUnits="userSpaceOnUse" gradientTransform="translate(23.8924 46.2318) scale(13.9825 14.1151)">
<stop offset="0.1684" stop-color="#F29020"/>
<stop offset="0.3042" stop-color="#F18D21"/>
<stop offset="0.4222" stop-color="#F08224"/>
<stop offset="0.5333" stop-color="#ED702A"/>
<stop offset="0.5765" stop-color="#EB672D"/>
<stop offset="0.6167" stop-color="#EA5E2F"/>
<stop offset="0.6834" stop-color="#E74433"/>
<stop offset="0.7143" stop-color="#E63635"/>
<stop offset="0.7553" stop-color="#E43231"/>
<stop offset="0.8001" stop-color="#DE2425"/>
<stop offset="0.8367" stop-color="#D71416"/>
<stop offset="0.9694" stop-color="#BA1819"/>
</radialGradient>
<linearGradient id="paint1_linear_4275_1060" x1="14.709" y1="41.1939" x2="14.709" y2="56.2491" gradientUnits="userSpaceOnUse">
<stop stop-color="#6B2A70"/>
<stop offset="0.0967907" stop-color="#742D6C"/>
<stop offset="0.2518" stop-color="#8B3362"/>
<stop offset="0.4456" stop-color="#B13F51"/>
<stop offset="0.6689" stop-color="#E64E39"/>
<stop offset="0.6786" stop-color="#E84F38"/>
</linearGradient>
<linearGradient id="paint2_linear_4275_1060" x1="23.958" y1="49.4102" x2="31.7621" y2="40.4981" gradientUnits="userSpaceOnUse">
<stop offset="0.0408163" stop-color="#81358A"/>
<stop offset="0.199" stop-color="#A63E64"/>
<stop offset="0.283" stop-color="#AE475D"/>
<stop offset="0.4175" stop-color="#C45E4A"/>
<stop offset="0.5847" stop-color="#E7842A"/>
<stop offset="0.6326" stop-color="#F29020"/>
</linearGradient>
<linearGradient id="paint3_linear_4275_1060" x1="18.8149" y1="57.504" x2="31.1186" y2="57.504" gradientUnits="userSpaceOnUse">
<stop stop-color="#AA3364"/>
<stop offset="0.161" stop-color="#B3375E"/>
<stop offset="0.4187" stop-color="#CA414D"/>
<stop offset="0.6786" stop-color="#E84F38"/>
<stop offset="0.7256" stop-color="#E74B35"/>
<stop offset="0.777" stop-color="#E33D2E"/>
<stop offset="0.8303" stop-color="#DD2821"/>
<stop offset="0.8673" stop-color="#D71416"/>
<stop offset="1" stop-color="#C41512"/>
</linearGradient>
</defs>
</svg>
