<svg width="140" height="101" viewBox="0 0 140 101" fill="none" xmlns="http://www.w3.org/2000/svg">
<rect y="0.178711" width="140" height="100" rx="4" fill="#FFCE4C"/>
<path fill-rule="evenodd" clip-rule="evenodd" d="M47.6724 57.6451L51.1725 48.072L52.3172 57.6451H56.0149L54.0123 43.585H49.4997L46.5112 52.0313L43.5234 43.585H39.0108L37.0075 57.6451H40.7059L41.8499 48.072L45.3507 57.6451H47.6724Z" fill="#231F20"/>
<path fill-rule="evenodd" clip-rule="evenodd" d="M76.387 47.189L73.8792 54.5013L71.3355 47.189H67.1104L71.8651 57.6448L69.9817 61.7466H74.0768L80.6136 47.189H76.387Z" fill="#231F20"/>
<path fill-rule="evenodd" clip-rule="evenodd" d="M117.86 42.4253V57.6324H121.69V52.3375L125.619 57.6324H129.977L125.652 52.0423L129.591 47.1888H125.19L121.69 51.7551V42.4253H117.86Z" fill="#231F20"/>
<path fill-rule="evenodd" clip-rule="evenodd" d="M85.1265 55.2198V49.7197C85.9025 49.4576 88.7135 48.7542 88.7135 52.3275C88.7135 55.9693 85.8299 55.4106 85.1265 55.2198ZM81.2297 57.1062C81.2297 57.1062 83.2553 57.8651 86.0951 57.8651C88.9341 57.8651 92.6319 56.9816 92.6319 52.0863C92.6319 47.1889 87.7241 47.0125 87.1514 47.0125C86.0707 47.0125 85.3801 47.307 85.1265 47.4373V42.4023H81.2297V57.1062Z" fill="#231F20"/>
<path fill-rule="evenodd" clip-rule="evenodd" d="M96.6831 54.4234C96.6831 52.9208 99.5329 52.8135 100.316 52.8128V55.489C99.5006 55.587 96.6831 55.8195 96.6831 54.4234ZM94.7236 49.8363C100.315 48.1818 100.316 50.1682 100.316 50.4318V50.7867C95.7907 50.8249 93.0946 52.1202 93.0946 54.4681C93.0946 56.8498 95.6045 57.8866 98.9286 57.8866C102.253 57.8866 103.947 57.1141 103.947 57.1141V50.6082C103.947 48.3142 102.473 46.8584 98.9286 46.8584C95.3839 46.8584 93.8441 47.6972 93.8441 47.6972L94.7236 49.8363Z" fill="#231F20"/>
<path fill-rule="evenodd" clip-rule="evenodd" d="M60.0988 54.4234C60.0988 52.9208 62.9487 52.8135 63.7305 52.8128V55.489C62.9156 55.587 60.0988 55.8195 60.0988 54.4234ZM58.1393 49.8363C63.7305 48.1818 63.7305 50.1682 63.7305 50.4318V50.7867C59.2064 50.8249 56.5103 52.1202 56.5103 54.4681C56.5103 56.8498 59.0203 57.8866 62.3436 57.8866C65.6677 57.8866 67.3628 57.1141 67.3628 57.1141V50.6082C67.3628 48.3142 65.8883 46.8584 62.3436 46.8584C58.7997 46.8584 57.2591 47.6972 57.2591 47.6972L58.1393 49.8363Z" fill="#231F20"/>
<path fill-rule="evenodd" clip-rule="evenodd" d="M112.554 57.6223H116.406V51.0055C116.406 47.5646 113.941 46.8359 110.903 46.8359C107.866 46.8359 105.422 47.674 105.422 47.674V57.6223H109.275V49.7109C112.237 48.8433 112.554 50.2689 112.554 50.9608V57.6223Z" fill="#231F20"/>
<path fill-rule="evenodd" clip-rule="evenodd" d="M16.6567 46.5115C16.6567 46.5115 16.9046 45.5352 17.3005 45.2047C17.6972 44.8735 19.1221 43.9303 21.18 43.2686C21.4251 43.1894 21.7096 43.2801 21.7226 43.2845C21.7089 43.3658 21.701 43.4213 21.6974 43.4393C21.6701 43.5941 21.5544 43.6927 21.5544 43.6927C21.9726 43.7481 22.2478 43.4508 22.3247 43.1081C22.4023 42.7675 22.666 41.4125 23.0957 41.4326C24.295 41.4873 25.1537 45.3703 25.066 45.546C25.0078 45.6612 24.5372 45.5676 24.5372 45.5676C25.2852 46.7477 26.2646 46.7361 26.4852 46.5497C26.7051 46.3632 26.5844 45.7555 26.5844 45.7555C28.9398 47.1566 28.8076 48.822 28.8076 48.822C29.5118 46.0651 27.8835 44.8843 27.8835 44.8843C28.5216 44.862 29.215 45.2702 29.215 45.2702C28.2241 43.9361 26.1769 43.1966 26.1769 43.1966C26.1769 43.1966 23.7891 40.5391 23.0188 40.6385C22.38 40.7213 22.015 41.8949 21.8361 42.6969C21.7484 42.6897 21.581 42.6833 21.3633 42.7092C21.1944 42.4989 20.4794 41.6486 20.2014 41.9287C20.0929 42.0367 20.0584 42.8028 20.049 43.1246C18.8921 43.5854 16.924 44.4516 16.5238 45.0873C16.1616 45.6669 16.0782 46.0975 16.0782 46.0975C16.0782 46.0975 13.7185 47.6189 13.14 49.2749C13.14 49.2749 14.7252 47.4209 16.6567 46.5115Z" fill="#231F20"/>
<mask id="mask0_4275_1118" style="mask-type:luminance" maskUnits="userSpaceOnUse" x="10" y="38" width="24" height="25">
<path fill-rule="evenodd" clip-rule="evenodd" d="M10 38.8984H33.384V62.3299H10V38.8984Z" fill="white"/>
</mask>
<g mask="url(#mask0_4275_1118)">
<path fill-rule="evenodd" clip-rule="evenodd" d="M21.6915 38.8984C15.2453 38.8984 9.99979 44.1552 9.99979 50.6136C9.99979 57.0734 15.2453 62.3301 21.6915 62.3301C28.1392 62.3301 33.384 57.0734 33.384 50.6136C33.384 44.1552 28.1392 38.8984 21.6915 38.8984ZM21.6915 39.8769C27.6089 39.8769 32.4067 44.6829 32.4067 50.6136C32.4067 56.5435 27.6089 61.3502 21.6915 61.3502C15.7749 61.3502 10.9778 56.5435 10.9778 50.6136C10.9778 44.6829 15.7749 39.8769 21.6915 39.8769Z" fill="#231F20"/>
</g>
<path fill-rule="evenodd" clip-rule="evenodd" d="M24.251 45.2828C24.2173 44.0574 23.613 43.0768 23.304 43.0199C22.9964 42.9659 22.8973 44.1337 22.8973 44.1337C23.7121 44.6737 24.251 45.2828 24.251 45.2828Z" fill="#231F20"/>
<path fill-rule="evenodd" clip-rule="evenodd" d="M18.4502 45.0619C17.9767 45.347 18.1865 45.5904 18.1865 45.5904C18.1865 45.5904 18.1096 45.347 18.6931 45.1821C19.7336 44.8877 20.6742 44.586 20.6512 44.3333C20.6296 44.0798 19.9254 43.9805 19.9254 43.9805C20.1238 44.2447 18.9238 44.7746 18.4502 45.0619Z" fill="#231F20"/>
<path fill-rule="evenodd" clip-rule="evenodd" d="M18.9401 46.6817C19.0831 46.6817 19.1987 46.5665 19.1987 46.4233C19.1987 46.3448 19.1635 46.2771 19.1082 46.2296C19.2799 46.2181 19.6723 46.2397 19.6723 46.2397C19.6284 46.2296 19.5293 46.3397 19.3087 46.6155C19.0888 46.892 18.8804 46.6817 18.8804 46.6817L18.8768 46.6695C18.897 46.6738 18.9178 46.6817 18.9401 46.6817ZM18.1094 47.8618C18.1094 47.8618 18.4062 47.1677 18.6268 47.0799C18.6268 47.0799 19.0119 47.1785 19.221 47.1008C19.4301 47.0245 19.8261 46.4952 19.9805 46.4837C19.9805 46.4837 19.5731 48.2578 17.9219 48.2254C17.9219 48.2254 19.1111 48.8986 19.7161 48.4241C20.3219 47.9497 19.8591 47.586 20.6409 46.825C21.422 46.0632 20.9053 46.0316 20.8723 46.0431C20.8392 46.0532 20.5964 45.9761 20.5964 45.9761C20.5964 45.9761 20.7063 45.8328 20.9276 45.7349C21.1475 45.6341 22.4129 45.0617 22.4352 44.7176C22.4567 44.377 21.5211 43.9911 21.0483 44.0012C21.0483 44.0012 21.4766 44.1776 21.455 44.4209C21.4335 44.6636 20.2011 45.2043 20.2011 45.8991C20.2011 45.8991 19.7607 45.9315 19.4409 45.8667C19.1219 45.799 18.7805 45.8328 18.4284 46.0632C18.0764 46.2958 18.0548 45.7781 18.0871 45.7112C18.0871 45.7112 17.4052 46.141 18.2639 46.6925C18.2639 46.6925 17.9111 47.0568 17.878 47.1454C17.845 47.2332 17.702 47.707 18.1094 47.8618Z" fill="#231F20"/>
<path fill-rule="evenodd" clip-rule="evenodd" d="M17.0198 50.1341C17.0198 50.1341 17.0033 49.5055 16.4248 49.638C15.4533 49.8597 15.1206 51.5892 15.1206 51.5892C16.2114 49.5717 17.0198 50.1341 17.0198 50.1341Z" fill="#231F20"/>
<path fill-rule="evenodd" clip-rule="evenodd" d="M17.3833 51.6717C17.9107 50.8127 17.2676 50.2662 16.442 50.7285C15.6171 51.1922 15.418 52.301 15.418 52.301C17.0528 50.5146 17.3833 51.6717 17.3833 51.6717Z" fill="#231F20"/>
<path fill-rule="evenodd" clip-rule="evenodd" d="M25.1759 50.5638C25.1759 50.5638 24.5809 50.036 24.647 49.0582C24.7131 48.0819 24.8949 46.6117 23.2444 45.585C23.2444 45.585 23.9206 46.6275 23.6727 47.6528C23.4248 48.6788 22.5984 50.4291 22.666 51.0109C22.8147 52.2846 24.1354 52.5164 24.0363 54.253C24.0363 54.253 24.8123 53.3091 24.6643 52.2018C24.5155 51.093 23.5412 50.6127 23.9702 49.7372C23.9702 49.7372 24.4652 50.4644 25.1759 50.5638Z" fill="#231F20"/>
<path fill-rule="evenodd" clip-rule="evenodd" d="M17.672 55.6589C17.5226 55.6106 17.3911 55.0642 17.3911 55.0642C17.6059 55.2384 18.0435 55.2463 18.0435 55.2463C17.8366 55.4436 17.8208 55.7086 17.672 55.6589ZM19.3204 53.9172C19.3204 53.9172 19.8371 53.9388 19.8593 53.851C19.8816 53.7624 19.6941 53.1554 19.6941 53.1554C19.6941 53.1554 20.3436 53.2217 20.3551 53.4319C20.3659 53.64 19.9915 54.1714 19.199 54.5126C19.199 54.5126 19.3427 54.0929 19.3204 53.9172ZM15.9618 53.3549C16.033 53.3138 16.0998 53.2699 16.1609 53.2217C16.3218 53.1 16.4426 53.0417 16.5238 53.015C16.5072 53.2476 16.4936 53.6566 16.5662 53.9964C16.5662 53.9964 16.1386 53.7221 15.9618 53.3549ZM13.8938 51.2366C13.6409 51.2366 13.1896 50.5642 13.1127 50.4317C13.0359 50.2999 13.541 50.0566 13.6962 50.0126C13.85 49.968 14.0124 50.0054 14.0368 50.0803C14.0591 50.1444 13.7185 50.3546 13.6739 50.4317C13.6301 50.5094 13.9441 50.7996 13.993 50.8608C14.0807 50.9731 14.1475 51.2366 13.8938 51.2366ZM29.9286 45.9482C29.9286 45.9482 31.3721 49.8809 29.7432 53.4535C29.7432 53.4535 29.8359 52.9344 29.4349 51.9106C29.0052 50.8133 29.1489 49.3956 29.325 49.1314C29.325 49.1314 28.5317 49.9248 28.5762 51.2489C28.6208 52.5708 28.9721 56.299 26.2876 57.6886C26.2876 57.6886 27.3051 55.8245 26.925 53.64C26.925 53.64 27.272 53.7739 27.4538 54.2369C27.4538 54.2369 28.1803 52.3181 27.239 49.968C27.239 49.968 27.7671 50.0681 28.0977 50.3489C28.0977 50.3489 28.4447 48.6677 26.5456 47.4869C26.067 47.1888 26.1324 47.0246 26.1324 47.0246C26.1324 47.0246 25.9844 47.4048 26.2977 47.785C26.611 48.1658 27.0414 48.9103 26.9753 49.2912C26.9753 49.2912 26.4629 48.9262 25.7199 49.0262C25.7199 49.0262 27.1398 50.233 26.925 52.8307C26.925 52.8307 26.5628 52.434 25.638 52.2684C25.638 52.2684 26.6778 54.221 25.753 56.0894C25.753 56.0894 25.6869 55.4278 25.3901 55.0138C25.3901 55.0138 25.1587 56.3875 23.5082 56.8678C23.5082 56.8678 24.8447 55.1959 23.2603 54.3535C21.6751 53.5082 20.3379 55.3781 20.0742 57.0168C20.0742 57.0168 18.2418 57.1478 18.0601 56.4041C17.8783 55.6589 18.4064 55.3442 18.4064 55.3442C18.4064 55.3442 18.6874 55.5264 19.3319 55.229C19.975 54.9317 21.3288 54.1202 21.1966 53.095C21.0644 52.0704 19.4634 51.061 18.1915 51.4735C16.9211 51.8882 16.1939 53.0129 15.5336 52.9963C14.8732 52.9798 14.0641 51.9703 14.1805 51.4418C14.2955 50.9119 14.7245 50.7629 14.8732 49.8694C14.8732 49.8694 14.6426 49.8917 14.4888 49.7923C14.3343 49.6922 13.9269 49.5274 13.707 49.5835C13.4864 49.6382 12.9475 50.0026 12.9252 49.9356C12.9029 49.8694 12.9805 49.4712 12.9805 49.4712C12.9805 49.4712 12.3863 50.0998 12.4747 50.3546C12.5623 50.6081 13.0797 51.2366 13.6186 51.5902C13.6186 51.5902 13.7185 52.3613 14.4227 53.0791C14.843 53.5075 15.2354 53.5853 15.5702 53.5133C15.7118 53.7228 16.1939 54.355 16.9621 54.4932C16.9621 54.4932 16.8292 53.6069 16.9254 52.9373C16.9549 52.9214 16.9844 52.9042 17.0088 52.8797C17.1295 52.7594 18.5386 51.4577 19.5841 52.7148C19.5841 52.7148 19.1106 52.8912 18.9238 53.4859C18.7369 54.0828 18.627 55.5602 17.0749 54.612C17.0749 54.612 16.9427 55.4609 17.4162 55.9692C17.4162 55.9692 17.3501 56.8728 18.3733 57.3682C19.3973 57.865 20.113 57.4906 20.7733 57.821C20.7733 57.821 20.7072 56.4638 21.2677 55.6373C21.8296 54.81 22.6222 54.5342 23.0074 54.8554C23.3918 55.1743 23.6347 56.3875 22.1487 57.6454C22.1487 57.6454 23.8545 57.865 25.0215 56.9722C25.0215 56.9722 24.8763 58.5475 23.6986 59.8824C27.9662 58.9651 31.1515 55.1635 31.1515 50.6131C31.1515 48.9175 30.7068 47.3256 29.9286 45.9482Z" fill="#231F20"/>
<path fill-rule="evenodd" clip-rule="evenodd" d="M23.0735 46.3176C23.0735 46.3176 21.9619 45.6905 21.4668 46.34C21.0005 46.9527 21.3037 48.0017 21.0299 48.6576C21.022 48.6504 21.012 48.6418 21.0041 48.6346C20.3875 48.0816 19.6287 49.0205 19.485 49.2956C19.3427 49.572 19.1552 49.6037 19.1552 49.6037C17.8014 49.8802 18.0874 48.7887 17.6362 48.4582C17.1856 48.1263 16.4254 48.613 16.4254 48.613C17.1849 48.4676 17.361 48.9982 17.3394 49.207C17.3171 49.4172 17.4709 50.0357 17.68 50.377C17.8891 50.7183 18.737 50.4756 19.4304 50.5325C20.1238 50.5865 20.5198 51.4347 20.5198 51.4347C20.938 50.4202 19.8156 49.958 19.8156 49.958C19.8156 49.958 20.1432 49.3344 20.5305 49.549C21.7636 50.2323 21.4553 53.0007 21.4553 53.0007C22.5174 51.0005 22.0496 49.8262 21.4956 49.14C21.5653 48.5165 21.8807 46.5495 23.0735 46.3176Z" fill="#231F20"/>
</svg>
