<svg width="140" height="101" viewBox="0 0 140 101" fill="none" xmlns="http://www.w3.org/2000/svg">
<rect y="0.178711" width="140" height="100" rx="4" fill="#EC1F30"/>
<path fill-rule="evenodd" clip-rule="evenodd" d="M63.7609 31.1681L57.0975 26.718C58.1814 25.2407 59.5097 23.9582 61.0272 22.9311L66.8088 28.8402C65.6146 29.3602 64.5693 30.1668 63.7609 31.1681ZM73.6358 43.306C74.2035 43.0138 74.7307 42.6592 75.2084 42.2476C75.5207 41.9867 75.811 41.7037 76.0774 41.3859C77.2771 39.9821 78.0028 38.1668 78.0028 36.1769C78.0028 31.7598 74.4203 28.1769 70.0018 28.1769C69.0759 28.1769 68.183 28.3331 67.3581 28.6215L61.7749 22.4516C64.178 21.0074 66.9925 20.1787 70.0018 20.1787C78.8368 20.1787 86 27.3409 86 36.1805C86 45.0202 78.8368 52.1787 70.0018 52.1787C65.6055 52.1787 61.6243 50.4093 58.7326 47.5411H78.3573L57.7883 46.5177L79.5258 46.3799L56.7778 45.1948L65.5136 45.0607C65.5136 45.0607 70.0992 45.1985 73.6358 43.306ZM55.4808 42.9109C55.3411 42.6096 55.2089 42.2991 55.0876 41.9904H59.8551L60.7388 42.9219H67.8762L66.3091 44.5738H57.5255C57.2481 43.6734 56.449 42.9936 55.4808 42.9109ZM54.8929 41.4575C54.3178 39.8057 54 38.0326 54 36.1805C54 35.1516 54.0974 34.1466 54.2829 33.1746L62.0064 35.8902L62.0028 36.1769C62.0028 38.0767 62.6641 39.8241 63.772 41.1985C63.2024 39.9674 62.8056 38.5912 62.8056 37.125C62.8056 36.8089 62.824 36.4947 62.8626 36.1879L71.1225 39.0891V41.4575H54.8929ZM71.1225 36.085L64.7861 31.8535C65.5816 30.9458 66.5755 30.2256 67.7017 29.7478L71.1225 33.2444V36.085ZM71.1225 38.8007L62.9379 35.6716C63.1712 34.4075 63.7021 33.2407 64.4572 32.2522L71.1225 36.401V38.8007ZM62.045 35.3317L54.4428 32.4268C54.8782 30.6077 55.6296 28.9118 56.629 27.3905L63.4266 31.6165C62.6807 32.6932 62.192 33.961 62.045 35.3317Z" fill="white"/>
<path fill-rule="evenodd" clip-rule="evenodd" d="M22.0178 63.3979C20.0089 63.3979 18.0978 64.8218 18.0978 68.0182C18.0978 70.9623 19.2889 72.8224 21.9449 72.8224C23.7813 72.8224 25.9413 71.5771 25.9413 68.1092C25.9413 65.0267 24.576 63.3979 22.0178 63.3979ZM21.7209 76.0608C16.5316 76.0608 14 73.1148 14 68.3106C14 63.3296 17.7493 60.1787 22.3164 60.1787C26.736 60.1787 30.0391 62.5116 30.0391 67.8815C30.0391 72.9082 26.3644 76.0608 21.7209 76.0608Z" fill="white"/>
<path fill-rule="evenodd" clip-rule="evenodd" d="M39.6284 75.9679C33.4435 75.9679 31.7813 72.1428 31.7813 68.6749C31.7813 63.7113 34.736 60.3608 40.272 60.3608C41.44 60.3608 42.6542 60.4957 43.6995 60.7462L43.2515 63.939C42.3058 63.6903 41.2409 63.5327 40.1973 63.5327C37.4915 63.5327 36.0266 65.3227 36.0266 68.0847C36.0266 71.0972 37.3689 72.754 40.3982 72.754C41.2675 72.754 42.5298 72.5491 43.3262 72.2093L43.7742 75.3584C42.5564 75.7455 41.0684 75.9679 39.6284 75.9679Z" fill="white"/>
<path fill-rule="evenodd" clip-rule="evenodd" d="M50.6809 69.2426C50.4818 69.2426 49.6871 69.2426 49.3902 69.2636V72.8681C49.712 72.9083 50.2844 72.9346 50.88 72.9346C52.5938 72.9346 53.5609 72.2095 53.5609 71.0308C53.5609 69.8521 52.4924 69.2426 50.6809 69.2426ZM51.0026 63.2141C50.4089 63.2141 49.8613 63.2369 49.3902 63.2597V66.6137C49.712 66.6347 50.0853 66.6347 50.5315 66.6347C52.4178 66.6347 53.3369 65.9341 53.3369 64.7782C53.3369 63.8026 52.6186 63.2141 51.0026 63.2141ZM50.8035 75.814C49.8133 75.814 47.9484 75.7632 45.5164 75.7632V60.4959C47.0542 60.4293 49.5644 60.3838 51.6249 60.3838C55.2729 60.3838 57.4329 61.6746 57.4329 64.2352C57.4329 65.6626 56.4409 66.9534 55.0009 67.5419V67.6102C56.7146 68.0183 57.7066 69.4685 57.7066 70.9853C57.7066 73.432 55.7458 75.814 50.8035 75.814Z" fill="white"/>
<path fill-rule="evenodd" clip-rule="evenodd" d="M67.2925 75.9679C61.1111 75.9679 59.4489 72.1428 59.4489 68.6749C59.4489 63.7113 62.4036 60.3608 67.9396 60.3608C69.1058 60.3608 70.3218 60.4957 71.3636 60.7462L70.9191 63.939C69.9769 63.6903 68.9067 63.5327 67.8667 63.5327C65.1591 63.5327 63.6942 65.3227 63.6942 68.0847C63.6942 71.0972 65.0329 72.754 68.0605 72.754C68.9334 72.754 70.2009 72.5491 70.9938 72.2093L71.44 75.3584C70.224 75.7455 68.7342 75.9679 67.2925 75.9679Z" fill="white"/>
<path fill-rule="evenodd" clip-rule="evenodd" d="M88.1938 75.7632L84.2453 69.1743C83.5271 67.9973 82.9547 66.8169 82.5085 65.822C82.5831 66.9535 82.6329 68.4947 82.6329 69.9432V75.7632H78.9067V60.4731H83.8738L87.5485 66.5226C88.2916 67.7924 88.9867 69.106 89.584 70.2847C89.4613 68.9676 89.4116 66.9535 89.4116 65.5033V60.4731H93.1342V75.7632H88.1938Z" fill="white"/>
<path fill-rule="evenodd" clip-rule="evenodd" d="M94.8765 75.7632H98.7485V60.4731H94.8765V75.7632Z" fill="white"/>
<path fill-rule="evenodd" clip-rule="evenodd" d="M104.437 76.0364C103.271 76.0364 102.078 75.9243 101.012 75.6949L101.211 72.4337C102.155 72.7542 103.52 73.0029 104.736 73.0029C106.149 73.0029 107.17 72.4582 107.17 71.3706C107.17 68.7645 100.491 70.1043 100.491 64.9831C100.491 62.1037 102.949 60.2017 107.143 60.2017C108.037 60.2017 109.156 60.291 110.197 60.4731L109.973 63.5329C109.031 63.2824 107.989 63.1231 106.992 63.1231C105.381 63.1231 104.638 63.7588 104.638 64.6188C104.638 66.9972 111.316 66.0935 111.316 70.8714C111.316 73.8419 108.708 76.0364 104.437 76.0364Z" fill="white"/>
<path fill-rule="evenodd" clip-rule="evenodd" d="M117.678 63.2367C117.412 63.2367 117.142 63.2367 116.872 63.2595V67.7449C117.116 67.7694 117.336 67.7922 117.529 67.7922C119.121 67.7694 120.321 66.9287 120.321 65.4348C120.321 64.1439 119.562 63.2367 117.678 63.2367ZM117.75 70.7136C117.555 70.7136 117.216 70.7136 116.872 70.6908V75.763H113.058V60.4729C114.473 60.4064 116.039 60.3608 117.75 60.3608C121.96 60.3608 124.258 62.1263 124.258 65.2754C124.258 68.2441 121.96 70.7136 117.75 70.7136Z" fill="white"/>
</svg>
