<svg width="99" height="48" viewBox="0 0 99 48" fill="none" xmlns="http://www.w3.org/2000/svg">
<g clip-path="url(#clip0_4028_4423)">
<path d="M96.0462 8.67981C94.8229 7.34662 89.7694 9.29205 89.7694 9.29205C89.7694 9.29205 88.0367 9.97528 86.6332 9.94423C85.8413 9.9287 85.5522 9.5649 86.0104 9.2011C86.1839 9.06357 86.5865 8.91938 86.9023 8.81956C87.1425 8.74414 87.3694 8.46685 87.3983 8.10306C87.514 6.67448 87.494 3.15186 84.4334 3.20732C81.553 3.26055 81.0614 5.40785 82.3359 7.91672C83.1389 9.49392 81.682 9.6137 80.561 9.47617C76.7775 9.0059 71.0745 6.73216 68.957 0.574219C77.8585 2.94778 92.394 0.00855786 96.9025 3.14742C96.9515 3.1807 99.2514 6.49702 96.0462 8.67981Z" fill="white"/>
<path d="M89.4753 22.4591C86.2723 24.6951 82.7069 26.3477 77.3086 26.6538C77.3442 26.4719 78.6165 19.9147 86.0165 15.456C91.7017 12.031 98.7749 9.26476 96.9109 3.14453C98.1409 4.02075 98.895 5.64453 98.9839 6.9023C99.2842 11.188 95.0759 18.5483 89.4753 22.4591Z" fill="#A7A9AC"/>
<path d="M42.037 16.6109L42.1815 16.7019L41.7122 17.2099C41.6722 17.252 41.2651 17.8044 40.5245 17.8044C40.2664 17.8044 39.9906 17.76 39.7015 17.6757C39.1499 17.5138 39.0809 17.4206 38.1734 17.4206C35.9225 17.4206 35.7601 20.0559 35.7579 20.0737L34.2498 27.1677C33.9207 28.9756 32.7774 30.2423 31.3405 30.2423C30.5843 30.2423 29.6746 30.2445 29.1719 30.2511C29.7435 27.5249 31.2693 20.229 31.3561 19.7764C31.6653 18.4122 32.9998 15.6992 38.4292 15.6992C40.0373 15.697 40.8714 16.0298 42.037 16.6109Z" fill="white"/>
<path d="M56.4014 15.6963C58.1074 15.6963 59.6399 16.0401 60.9589 16.7189C60.7809 17.0605 60.2649 17.899 59.2796 17.8635C58.9326 17.8502 58.6768 17.7859 58.4299 17.7083C57.8783 17.5352 57.2889 17.4487 56.6772 17.4487C55.9743 17.4487 55.3738 17.4665 54.8444 17.7682C54.3128 18.0854 54.0793 18.4647 54.017 18.8174C53.8391 19.8511 54.731 20.1018 56.4614 21.1111C58.1652 22.1093 59.0794 22.9789 59.5087 23.6399C60.0069 24.4097 60.0047 25.1861 59.8445 26.1067C59.6355 27.309 58.8125 28.5335 57.469 29.3076C56.0944 30.1018 54.424 30.5055 52.5023 30.5055C50.4938 30.5055 48.7344 30.0219 47.2642 29.0681L48.1049 28.1031C48.4163 27.7682 49.0258 27.7016 49.3505 27.8835C50.3848 28.4647 51.3679 28.7154 52.4022 28.7154C54.5375 28.7154 55.2248 27.8103 55.3938 27.1914C55.5161 26.7455 55.4138 26.242 54.9712 25.785C54.5597 25.3613 53.7167 24.8755 52.3888 24.2012C51.1566 23.5756 50.4849 22.8391 50.1557 22.309C49.6597 21.5126 49.6041 20.5565 49.7487 19.7269C49.9377 18.6244 50.6828 17.5064 51.8951 16.8076C53.1317 16.069 54.6487 15.6963 56.4014 15.6963Z" fill="white"/>
<path d="M69.5777 15.9312H73.6881C73.608 16.1929 73.3255 17.0713 72.9697 17.3398C72.4025 17.7635 71.9265 17.8145 71.4972 17.8145C71.3081 17.8145 71.1813 17.8167 71.1613 17.8145H69.1773L69.1261 18.0629L67.7649 24.4338C67.4491 25.9134 67.1354 27.1534 67.2889 27.7457C67.3712 28.0607 67.587 28.3668 68.1697 28.3668C68.6457 28.3668 69.0483 28.1627 69.4798 27.7901C69.8846 27.4418 70.285 27.1179 70.9122 27.1179C71.2436 27.1179 71.8197 27.2887 72.1133 27.6148C70.2494 29.8331 68.0207 30.4831 66.7551 30.4831L66.6772 30.4808C64.7065 30.4409 63.7612 29.822 63.2942 28.8837C63.0139 28.3291 62.7114 27.2488 63.1095 25.3699L64.6576 18.2138L64.7421 17.8145H62.311L62.5335 16.8429C62.7381 16.1729 63.4143 15.9312 64.0593 15.9312H65.1492L65.1937 15.6716C65.1981 15.6539 65.4895 14.0678 66.8463 13.1006C67.8961 12.3531 69.3241 12.3486 70.3339 12.3486L69.6577 15.5341L69.5777 15.9312Z" fill="white"/>
<path d="M46.0671 15.9405C46.3317 15.9405 47.9465 15.9139 48.2824 15.9405L47.4083 20.071L45.9336 27.0275L45.9002 27.165C45.571 28.9729 44.4278 30.2396 42.9909 30.2396C42.2347 30.2396 41.3249 30.2418 40.8223 30.2484C41.3939 27.5222 42.8486 20.7121 42.9353 20.2595L43.478 17.724C43.8028 16.4219 44.8771 15.9405 46.0671 15.9405Z" fill="white"/>
<path d="M30.6199 15.9004C30.8935 15.9004 31.3762 15.9137 31.5875 15.9314L23.202 28.5779C23.1931 28.5889 22.0899 30.2549 20.8021 30.2549C20.7376 30.2549 19.5832 30.2549 19.532 30.2504L16.8073 16.9496C16.7094 16.2553 17.3189 15.9292 17.826 15.9292L21.5984 15.9248L23.0108 24.4031L23.0864 24.951L23.2866 24.5672L27.7951 17.4998C28.6782 16.0512 29.9704 15.9004 30.6199 15.9004Z" fill="white"/>
<path d="M14.4937 17.3465C13.7196 16.2707 12.3183 15.7383 9.82717 15.7383C7.56955 15.7383 5.92806 16.1952 4.47117 17.0959L4.27321 17.2201L4.4556 17.6127C4.529 17.6926 4.7403 18.3714 5.29637 18.3714C5.60554 18.3714 5.94807 18.2804 6.31508 18.1074C7.25816 17.6571 7.84759 17.4397 9.00197 17.4397C9.92726 17.4397 10.5745 18.0985 10.6724 18.6509C10.8259 19.5204 10.3966 19.9486 10.2653 20.1549L9.92281 20.3811C9.77156 20.4566 9.53802 20.5653 9.24664 20.6828C8.73951 20.8891 8.25907 21.0333 6.79774 21.3638C5.14289 21.7387 0.861208 22.1291 0.211726 26.0355C-0.146379 28.1806 0.954626 30.5763 6.42629 30.5763C9.17102 30.5763 12.7788 29.3275 13.3482 26.6433C13.7819 24.6025 14.8028 19.8643 14.8028 19.8643C14.8295 19.7001 15.2388 18.3803 14.4937 17.3465ZM8.87964 26.7409C8.71504 27.1691 8.49484 28.7418 6.75103 28.9282C5.79015 29.0324 3.9329 28.622 4.49341 25.9867C4.81815 24.4672 5.89247 23.1451 7.88095 22.8456C9.17102 22.6504 10.0451 21.9827 10.0451 21.9827L8.87964 26.7409Z" fill="white"/>
</g>
<path d="M44.0023 38.1606C44.0023 37.9026 44.0473 37.6746 44.1373 37.4766C44.2273 37.2786 44.3443 37.1166 44.4883 36.9906C44.6383 36.8586 44.8033 36.7596 44.9833 36.6936C45.1693 36.6276 45.3553 36.5946 45.5413 36.5946C45.7273 36.5946 45.9103 36.6276 46.0903 36.6936C46.2763 36.7596 46.4413 36.8586 46.5853 36.9906C46.7353 37.1166 46.8553 37.2786 46.9453 37.4766C47.0353 37.6746 47.0803 37.9026 47.0803 38.1606V38.4846H46.1623V38.1606C46.1623 37.9386 46.0993 37.7766 45.9733 37.6746C45.8533 37.5666 45.7093 37.5126 45.5413 37.5126C45.3733 37.5126 45.2263 37.5666 45.1003 37.6746C44.9803 37.7766 44.9203 37.9386 44.9203 38.1606V41.5446C44.9203 41.7666 44.9803 41.9316 45.1003 42.0396C45.2263 42.1416 45.3733 42.1926 45.5413 42.1926C45.7093 42.1926 45.8533 42.1416 45.9733 42.0396C46.0993 41.9316 46.1623 41.7666 46.1623 41.5446V40.3386H45.4333V39.5286H47.0803V41.5446C47.0803 41.8086 47.0353 42.0396 46.9453 42.2376C46.8553 42.4296 46.7353 42.5916 46.5853 42.7236C46.4413 42.8496 46.2763 42.9456 46.0903 43.0116C45.9103 43.0776 45.7273 43.1106 45.5413 43.1106C45.3553 43.1106 45.1693 43.0776 44.9833 43.0116C44.8033 42.9456 44.6383 42.8496 44.4883 42.7236C44.3443 42.5916 44.2273 42.4296 44.1373 42.2376C44.0473 42.0396 44.0023 41.8086 44.0023 41.5446V38.1606ZM48.9414 41.1216V41.7426C48.9414 41.8866 48.9804 41.9976 49.0584 42.0756C49.1424 42.1536 49.2534 42.1926 49.3914 42.1926C49.5654 42.1926 49.6794 42.1416 49.7334 42.0396C49.7934 41.9376 49.8294 41.8356 49.8414 41.7336H50.7594C50.7594 41.9256 50.7264 42.1056 50.6604 42.2736C50.6004 42.4416 50.5104 42.5856 50.3904 42.7056C50.2704 42.8316 50.1264 42.9306 49.9584 43.0026C49.7904 43.0746 49.6014 43.1106 49.3914 43.1106C49.1094 43.1106 48.8664 43.0506 48.6624 42.9306C48.4584 42.8106 48.3024 42.6516 48.1944 42.4536C48.1284 42.3336 48.0834 42.1956 48.0594 42.0396C48.0354 41.8836 48.0234 41.7126 48.0234 41.5266V40.0236C48.0234 39.8376 48.0354 39.6666 48.0594 39.5106C48.0834 39.3546 48.1284 39.2166 48.1944 39.0966C48.3024 38.8986 48.4584 38.7396 48.6624 38.6196C48.8664 38.4996 49.1094 38.4396 49.3914 38.4396C49.6014 38.4396 49.7904 38.4756 49.9584 38.5476C50.1324 38.6196 50.2764 38.7216 50.3904 38.8536C50.5104 38.9796 50.6004 39.1296 50.6604 39.3036C50.7264 39.4776 50.7594 39.6636 50.7594 39.8616V41.1216H48.9414ZM48.9414 40.4016H49.8414V39.8796C49.8414 39.7056 49.7994 39.5766 49.7154 39.4926C49.6374 39.4026 49.5294 39.3576 49.3914 39.3576C49.2534 39.3576 49.1424 39.4026 49.0584 39.4926C48.9804 39.5766 48.9414 39.7056 48.9414 39.8796V40.4016ZM51.7054 38.4936H52.6234V38.9346H52.6414C52.7374 38.7906 52.8514 38.6736 52.9834 38.5836C53.1214 38.4876 53.2954 38.4396 53.5054 38.4396C53.6194 38.4396 53.7334 38.4606 53.8474 38.5026C53.9614 38.5386 54.0634 38.6016 54.1534 38.6916C54.2434 38.7816 54.3154 38.8986 54.3694 39.0426C54.4234 39.1806 54.4504 39.3516 54.4504 39.5556V43.0566H53.5324V39.8976C53.5324 39.7296 53.4934 39.5976 53.4154 39.5016C53.3374 39.4056 53.2264 39.3576 53.0824 39.3576C52.9084 39.3576 52.7884 39.4116 52.7224 39.5196C52.6564 39.6276 52.6234 39.7836 52.6234 39.9876V43.0566H51.7054V38.4936ZM56.3105 41.1216V41.7426C56.3105 41.8866 56.3495 41.9976 56.4275 42.0756C56.5115 42.1536 56.6225 42.1926 56.7605 42.1926C56.9345 42.1926 57.0485 42.1416 57.1025 42.0396C57.1625 41.9376 57.1985 41.8356 57.2105 41.7336H58.1285C58.1285 41.9256 58.0955 42.1056 58.0295 42.2736C57.9695 42.4416 57.8795 42.5856 57.7595 42.7056C57.6395 42.8316 57.4955 42.9306 57.3275 43.0026C57.1595 43.0746 56.9705 43.1106 56.7605 43.1106C56.4785 43.1106 56.2355 43.0506 56.0315 42.9306C55.8275 42.8106 55.6715 42.6516 55.5635 42.4536C55.4975 42.3336 55.4525 42.1956 55.4285 42.0396C55.4045 41.8836 55.3925 41.7126 55.3925 41.5266V40.0236C55.3925 39.8376 55.4045 39.6666 55.4285 39.5106C55.4525 39.3546 55.4975 39.2166 55.5635 39.0966C55.6715 38.8986 55.8275 38.7396 56.0315 38.6196C56.2355 38.4996 56.4785 38.4396 56.7605 38.4396C56.9705 38.4396 57.1595 38.4756 57.3275 38.5476C57.5015 38.6196 57.6455 38.7216 57.7595 38.8536C57.8795 38.9796 57.9695 39.1296 58.0295 39.3036C58.0955 39.4776 58.1285 39.6636 58.1285 39.8616V41.1216H56.3105ZM56.3105 40.4016H57.2105V39.8796C57.2105 39.7056 57.1685 39.5766 57.0845 39.4926C57.0065 39.4026 56.8985 39.3576 56.7605 39.3576C56.6225 39.3576 56.5115 39.4026 56.4275 39.4926C56.3495 39.5766 56.3105 39.7056 56.3105 39.8796V40.4016ZM59.0745 38.4936H59.9925V38.9796C60.1785 38.8116 60.3615 38.6796 60.5415 38.5836C60.7215 38.4876 60.9435 38.4396 61.2075 38.4396V39.4116C61.1175 39.3756 61.0245 39.3576 60.9285 39.3576C60.8325 39.3576 60.7275 39.3756 60.6135 39.4116C60.5055 39.4416 60.4035 39.4956 60.3075 39.5736C60.2175 39.6516 60.1425 39.7536 60.0825 39.8796C60.0225 40.0056 59.9925 40.1616 59.9925 40.3476V43.0566H59.0745V38.4936ZM63.5337 42.5886H63.5157C63.3957 42.7566 63.2727 42.8856 63.1467 42.9756C63.0267 43.0656 62.8557 43.1106 62.6337 43.1106C62.5257 43.1106 62.4147 43.0926 62.3007 43.0566C62.1867 43.0266 62.0787 42.9696 61.9767 42.8856C61.8807 42.7956 61.7997 42.6726 61.7337 42.5166C61.6737 42.3546 61.6437 42.1476 61.6437 41.8956C61.6437 41.6376 61.6647 41.4126 61.7067 41.2206C61.7487 41.0226 61.8237 40.8606 61.9317 40.7346C62.0457 40.6026 62.1957 40.5066 62.3817 40.4466C62.5677 40.3806 62.8047 40.3476 63.0927 40.3476C63.1587 40.3476 63.2247 40.3506 63.2907 40.3566C63.3567 40.3626 63.4377 40.3686 63.5337 40.3746V39.8976C63.5337 39.7416 63.5007 39.6126 63.4347 39.5106C63.3687 39.4086 63.2487 39.3576 63.0747 39.3576C62.9547 39.3576 62.8437 39.3966 62.7417 39.4746C62.6457 39.5526 62.5827 39.6666 62.5527 39.8166H61.6617C61.6917 39.4026 61.8297 39.0726 62.0757 38.8266C62.1957 38.7066 62.3397 38.6136 62.5077 38.5476C62.6757 38.4756 62.8647 38.4396 63.0747 38.4396C63.2667 38.4396 63.4467 38.4696 63.6147 38.5296C63.7827 38.5896 63.9267 38.6796 64.0467 38.7996C64.1727 38.9196 64.2717 39.0696 64.3437 39.2496C64.4157 39.4296 64.4517 39.6396 64.4517 39.8796V43.0566H63.5337V42.5886ZM63.5337 41.0946C63.4317 41.0766 63.3477 41.0676 63.2817 41.0676C63.0837 41.0676 62.9127 41.1156 62.7687 41.2116C62.6307 41.3016 62.5617 41.4696 62.5617 41.7156C62.5617 41.8896 62.6037 42.0306 62.6877 42.1386C62.7717 42.2466 62.8887 42.3006 63.0387 42.3006C63.1947 42.3006 63.3147 42.2496 63.3987 42.1476C63.4887 42.0456 63.5337 41.9016 63.5337 41.7156V41.0946ZM65.3437 36.6486H66.2617V41.7696C66.2617 41.9436 66.2917 42.0636 66.3517 42.1296C66.4177 42.1896 66.5377 42.2286 66.7117 42.2466V43.1106C66.5017 43.1106 66.3097 43.0926 66.1357 43.0566C65.9677 43.0266 65.8237 42.9666 65.7037 42.8766C65.5897 42.7806 65.4997 42.6486 65.4337 42.4806C65.3737 42.3126 65.3437 42.0966 65.3437 41.8326V36.6486ZM69.3586 36.6486H70.2766V43.0566H69.3586V36.6486ZM71.3845 38.4936H72.3025V38.9346H72.3205C72.4165 38.7906 72.5305 38.6736 72.6625 38.5836C72.8005 38.4876 72.9745 38.4396 73.1845 38.4396C73.2985 38.4396 73.4125 38.4606 73.5265 38.5026C73.6405 38.5386 73.7425 38.6016 73.8325 38.6916C73.9225 38.7816 73.9945 38.8986 74.0485 39.0426C74.1025 39.1806 74.1295 39.3516 74.1295 39.5556V43.0566H73.2115V39.8976C73.2115 39.7296 73.1725 39.5976 73.0945 39.5016C73.0165 39.4056 72.9055 39.3576 72.7615 39.3576C72.5875 39.3576 72.4675 39.4116 72.4015 39.5196C72.3355 39.6276 72.3025 39.7836 72.3025 39.9876V43.0566H71.3845V38.4936ZM76.8175 39.7716C76.8115 39.6156 76.7605 39.4986 76.6645 39.4206C76.5745 39.3426 76.4695 39.3036 76.3495 39.3036C76.2055 39.3036 76.0945 39.3516 76.0165 39.4476C75.9385 39.5376 75.8995 39.6426 75.8995 39.7626C75.8995 39.8466 75.9205 39.9306 75.9625 40.0146C76.0045 40.0926 76.1125 40.1646 76.2865 40.2306L76.8265 40.4466C77.1685 40.5786 77.4025 40.7586 77.5285 40.9866C77.6605 41.2146 77.7265 41.4636 77.7265 41.7336C77.7265 41.9256 77.6905 42.1056 77.6185 42.2736C77.5525 42.4356 77.4595 42.5796 77.3395 42.7056C77.2195 42.8316 77.0755 42.9306 76.9075 43.0026C76.7395 43.0746 76.5565 43.1106 76.3585 43.1106C76.1785 43.1106 76.0075 43.0806 75.8455 43.0206C75.6835 42.9606 75.5395 42.8736 75.4135 42.7596C75.2935 42.6456 75.1945 42.5046 75.1165 42.3366C75.0385 42.1626 74.9965 41.9616 74.9905 41.7336H75.8545C75.8725 41.8596 75.9145 41.9766 75.9805 42.0846C76.0525 42.1926 76.1755 42.2466 76.3495 42.2466C76.4815 42.2466 76.5985 42.2046 76.7005 42.1206C76.8085 42.0306 76.8625 41.9076 76.8625 41.7516C76.8625 41.6256 76.8295 41.5176 76.7635 41.4276C76.6975 41.3376 76.5775 41.2596 76.4035 41.1936L75.9625 41.0316C75.6745 40.9236 75.4465 40.7646 75.2785 40.5546C75.1165 40.3386 75.0355 40.0776 75.0355 39.7716C75.0355 39.5796 75.0715 39.4026 75.1435 39.2406C75.2155 39.0726 75.3115 38.9316 75.4315 38.8176C75.5575 38.6976 75.7015 38.6046 75.8635 38.5386C76.0255 38.4726 76.1995 38.4396 76.3855 38.4396C76.5715 38.4396 76.7425 38.4756 76.8985 38.5476C77.0605 38.6136 77.1985 38.7066 77.3125 38.8266C77.4265 38.9406 77.5165 39.0816 77.5825 39.2496C77.6485 39.4116 77.6815 39.5856 77.6815 39.7716H76.8175ZM81.3316 43.0566H80.4136V42.6156H80.3956C80.2996 42.7596 80.1826 42.8796 80.0446 42.9756C79.9126 43.0656 79.7416 43.1106 79.5316 43.1106C79.4176 43.1106 79.3036 43.0926 79.1896 43.0566C79.0756 43.0146 78.9736 42.9486 78.8836 42.8586C78.7936 42.7686 78.7216 42.6546 78.6676 42.5166C78.6136 42.3726 78.5866 42.1986 78.5866 41.9946V38.4936H79.5046V41.6526C79.5046 41.8206 79.5436 41.9526 79.6216 42.0486C79.6996 42.1446 79.8106 42.1926 79.9546 42.1926C80.1286 42.1926 80.2486 42.1386 80.3146 42.0306C80.3806 41.9226 80.4136 41.7666 80.4136 41.5626V38.4936H81.3316V43.0566ZM82.3546 38.4936H83.2726V38.9796C83.4586 38.8116 83.6416 38.6796 83.8216 38.5836C84.0016 38.4876 84.2236 38.4396 84.4876 38.4396V39.4116C84.3976 39.3756 84.3046 39.3576 84.2086 39.3576C84.1126 39.3576 84.0076 39.3756 83.8936 39.4116C83.7856 39.4416 83.6836 39.4956 83.5876 39.5736C83.4976 39.6516 83.4226 39.7536 83.3626 39.8796C83.3026 40.0056 83.2726 40.1616 83.2726 40.3476V43.0566H82.3546V38.4936ZM86.8138 42.5886H86.7958C86.6758 42.7566 86.5528 42.8856 86.4268 42.9756C86.3068 43.0656 86.1358 43.1106 85.9138 43.1106C85.8058 43.1106 85.6948 43.0926 85.5808 43.0566C85.4668 43.0266 85.3588 42.9696 85.2568 42.8856C85.1608 42.7956 85.0798 42.6726 85.0138 42.5166C84.9538 42.3546 84.9238 42.1476 84.9238 41.8956C84.9238 41.6376 84.9448 41.4126 84.9868 41.2206C85.0288 41.0226 85.1038 40.8606 85.2118 40.7346C85.3258 40.6026 85.4758 40.5066 85.6618 40.4466C85.8478 40.3806 86.0848 40.3476 86.3728 40.3476C86.4388 40.3476 86.5048 40.3506 86.5708 40.3566C86.6368 40.3626 86.7178 40.3686 86.8138 40.3746V39.8976C86.8138 39.7416 86.7808 39.6126 86.7148 39.5106C86.6488 39.4086 86.5288 39.3576 86.3548 39.3576C86.2348 39.3576 86.1238 39.3966 86.0218 39.4746C85.9258 39.5526 85.8628 39.6666 85.8328 39.8166H84.9418C84.9718 39.4026 85.1098 39.0726 85.3558 38.8266C85.4758 38.7066 85.6198 38.6136 85.7878 38.5476C85.9558 38.4756 86.1448 38.4396 86.3548 38.4396C86.5468 38.4396 86.7268 38.4696 86.8948 38.5296C87.0628 38.5896 87.2068 38.6796 87.3268 38.7996C87.4528 38.9196 87.5518 39.0696 87.6238 39.2496C87.6958 39.4296 87.7318 39.6396 87.7318 39.8796V43.0566H86.8138V42.5886ZM86.8138 41.0946C86.7118 41.0766 86.6278 41.0676 86.5618 41.0676C86.3638 41.0676 86.1928 41.1156 86.0488 41.2116C85.9108 41.3016 85.8418 41.4696 85.8418 41.7156C85.8418 41.8896 85.8838 42.0306 85.9678 42.1386C86.0518 42.2466 86.1688 42.3006 86.3188 42.3006C86.4748 42.3006 86.5948 42.2496 86.6788 42.1476C86.7688 42.0456 86.8138 41.9016 86.8138 41.7156V41.0946ZM88.6778 38.4936H89.5958V38.9346H89.6138C89.7098 38.7906 89.8238 38.6736 89.9558 38.5836C90.0938 38.4876 90.2678 38.4396 90.4778 38.4396C90.5918 38.4396 90.7058 38.4606 90.8198 38.5026C90.9338 38.5386 91.0358 38.6016 91.1258 38.6916C91.2158 38.7816 91.2878 38.8986 91.3418 39.0426C91.3958 39.1806 91.4228 39.3516 91.4228 39.5556V43.0566H90.5048V39.8976C90.5048 39.7296 90.4658 39.5976 90.3878 39.5016C90.3098 39.4056 90.1988 39.3576 90.0548 39.3576C89.8808 39.3576 89.7608 39.4116 89.6948 39.5196C89.6288 39.6276 89.5958 39.7836 89.5958 39.9876V43.0566H88.6778V38.4936ZM93.4179 41.7426C93.4179 41.8866 93.4569 41.9976 93.5349 42.0756C93.6189 42.1536 93.7299 42.1926 93.8679 42.1926C94.0419 42.1926 94.1559 42.1416 94.2099 42.0396C94.2699 41.9376 94.3059 41.8356 94.3179 41.7336H95.2359C95.2359 41.9256 95.2029 42.1056 95.1369 42.2736C95.0769 42.4416 94.9869 42.5856 94.8669 42.7056C94.7469 42.8316 94.6029 42.9306 94.4349 43.0026C94.2669 43.0746 94.0779 43.1106 93.8679 43.1106C93.5859 43.1106 93.3429 43.0506 93.1389 42.9306C92.9349 42.8106 92.7789 42.6516 92.6709 42.4536C92.6049 42.3336 92.5599 42.1956 92.5359 42.0396C92.5119 41.8836 92.4999 41.7126 92.4999 41.5266V40.0236C92.4999 39.8376 92.5119 39.6666 92.5359 39.5106C92.5599 39.3546 92.6049 39.2166 92.6709 39.0966C92.7789 38.8986 92.9349 38.7396 93.1389 38.6196C93.3429 38.4996 93.5859 38.4396 93.8679 38.4396C94.0779 38.4396 94.2669 38.4756 94.4349 38.5476C94.6089 38.6196 94.7529 38.7216 94.8669 38.8536C94.9869 38.9796 95.0769 39.1326 95.1369 39.3126C95.2029 39.4926 95.2359 39.6876 95.2359 39.8976H94.3179C94.3179 39.7116 94.2759 39.5766 94.1919 39.4926C94.1139 39.4026 94.0059 39.3576 93.8679 39.3576C93.7299 39.3576 93.6189 39.4026 93.5349 39.4926C93.4569 39.5766 93.4179 39.7056 93.4179 39.8796V41.7426ZM96.8839 41.1216V41.7426C96.8839 41.8866 96.9229 41.9976 97.0009 42.0756C97.0849 42.1536 97.1959 42.1926 97.3339 42.1926C97.5079 42.1926 97.6219 42.1416 97.6759 42.0396C97.7359 41.9376 97.7719 41.8356 97.7839 41.7336H98.7019C98.7019 41.9256 98.6689 42.1056 98.6029 42.2736C98.5429 42.4416 98.4529 42.5856 98.3329 42.7056C98.2129 42.8316 98.0689 42.9306 97.9009 43.0026C97.7329 43.0746 97.5439 43.1106 97.3339 43.1106C97.0519 43.1106 96.8089 43.0506 96.6049 42.9306C96.4009 42.8106 96.2449 42.6516 96.1369 42.4536C96.0709 42.3336 96.0259 42.1956 96.0019 42.0396C95.9779 41.8836 95.9659 41.7126 95.9659 41.5266V40.0236C95.9659 39.8376 95.9779 39.6666 96.0019 39.5106C96.0259 39.3546 96.0709 39.2166 96.1369 39.0966C96.2449 38.8986 96.4009 38.7396 96.6049 38.6196C96.8089 38.4996 97.0519 38.4396 97.3339 38.4396C97.5439 38.4396 97.7329 38.4756 97.9009 38.5476C98.0749 38.6196 98.2189 38.7216 98.3329 38.8536C98.4529 38.9796 98.5429 39.1296 98.6029 39.3036C98.6689 39.4776 98.7019 39.6636 98.7019 39.8616V41.1216H96.8839ZM96.8839 40.4016H97.7839V39.8796C97.7839 39.7056 97.7419 39.5766 97.6579 39.4926C97.5799 39.4026 97.4719 39.3576 97.3339 39.3576C97.1959 39.3576 97.0849 39.4026 97.0009 39.4926C96.9229 39.5766 96.8839 39.7056 96.8839 39.8796V40.4016Z" fill="white"/>
<defs>
<clipPath id="clip0_4028_4423">
<rect width="98.8525" height="32.483" fill="white" transform="translate(0.147461 0.574219)"/>
</clipPath>
</defs>
</svg>
